<?xml version="1.0" encoding="UTF-8" standalone="no"?><!DOCTYPE svg PUBLIC "-//W3C//DTD SVG 1.1//EN" "http://www.w3.org/Graphics/SVG/1.1/DTD/svg11.dtd"><svg width="100%" height="100%" viewBox="0 0 4675 4675" version="1.1" xmlns="http://www.w3.org/2000/svg" xmlns:xlink="http://www.w3.org/1999/xlink" xml:space="preserve" xmlns:serif="http://www.serif.com/" style="fill-rule:evenodd;clip-rule:evenodd;stroke-linejoin:round;stroke-miterlimit:2;"><g><path d="M2707.096,2757.696c-232.104,203.871 -586.054,182.15 -790.863,-51.142c-203.658,-233.033 -181.062,-586.558 51.758,-790.271c231.846,-204.875 586.013,-182.129 790.083,50.287c205.163,232.888 181.638,587.138 -50.979,791.125Zm879.733,-460.333c-1.354,-48.046 -5.95,-95.529 -12.942,-142.017l-247.433,-40.996l-83.858,-234.091l164.862,-189.004c-50.004,-83.2 -109.508,-159.775 -176.758,-228.667l-224.333,112.617l-205.667,-139.85l22.233,-250.183c-85.292,-35.975 -175.5,-63.012 -269.142,-79.25l-116.55,222.621l-248.746,5.833l-127.758,-216.467c-95.612,21.783 -187.004,54.225 -272.75,96.379l36.646,248.462l-197.687,151.225l-230.354,-99.446c-63.229,72.367 -118.379,152.125 -163.692,238.125l175.304,179.225l-70.617,238.367l-244.829,55.154c-4.4,49.321 -6.279,99.733 -4.712,150.95c1.737,46.746 5.933,92.575 12.271,137.784l247.525,41.704l83.104,234.358l-165.971,188.563c50.167,83.254 109.396,160.667 176.679,229.754l224.771,-111.908l205.263,140.446l-23.267,250.242c88.025,37.246 180.858,65.292 277.383,81.787l115.892,-223.15l248.716,-6.875l128.183,216.158c95.55,-22.212 186.792,-55.133 272.487,-97.471l-37.366,-248.321l197.008,-152.079l230.6,98.817c63.25,-72.879 118.246,-152.762 163.196,-238.675l-176.329,-178.517l69.742,-239.079l245.004,-55.546c3.95,-48.467 5.604,-97.558 3.891,-146.979Z" style="fill:#516784;fill-rule:nonzero;"/><path d="M2825.592,2892.588c-306.617,269.412 -774.208,239.233 -1043.608,-67.492c-270.167,-307.288 -239.775,-774.421 66.804,-1044.154c306.921,-269.45 774.842,-238.883 1044.296,67.942c269.516,306.646 239.429,774.25 -67.492,1043.704Zm127.883,-1096.704c-298.733,-340.167 -817.492,-374.054 -1157.762,-75.325c-339.896,299.041 -373.583,816.929 -74.067,1157.604c298.675,340.054 817.067,373.508 1157,74.825c340.271,-298.729 373.629,-817.146 74.829,-1157.104Z" style="fill:#d8d9da;fill-rule:nonzero;"/><path d="M1863.492,3231.442l8.196,5.608l-19.046,248.104l-4.221,2.138c88.025,37.246 180.858,65.292 277.383,81.787l-2.271,-4.063l118.163,-219.087l248.716,-6.875l130.646,211.883l-2.463,4.275c95.55,-22.212 186.792,-55.133 272.487,-97.471l-4.1,-1.763l-33.266,-246.558l197.008,-152.079l230.358,94.6l0.242,4.217c63.25,-72.879 118.246,-152.762 163.196,-238.675l-4.329,1.162l-172,-179.679l69.742,-239.079l241.821,-58.621l3.183,3.075c3.95,-48.467 5.604,-97.558 3.891,-146.979c-1.354,-48.046 -5.95,-95.529 -12.942,-142.017l-2.633,3.554l-69.408,-12.633c-464.737,670.154 -1119.292,960.6 -1638.354,1085.175Z" style="fill:#3e5770;fill-rule:nonzero;"/><path d="M2878.646,2952.988c116.733,-102.479 197.321,-230.817 240.796,-368.929c-45.487,41.483 -91.733,80.658 -138.554,117.646c-39.692,70.029 -91.404,134.792 -155.3,190.883c-139.558,122.621 -312.462,182.971 -484.846,183.642c-56.092,23.471 -111.788,44.754 -166.771,64.017c242.588,49.183 504.55,-11.417 704.675,-187.258Z" style="fill:#b1b2b3;fill-rule:nonzero;"/><path d="M1833.358,1408.529l-23.808,-201.296c0,0 119.042,-62.771 209.954,-77.921c0,0 -147.188,54.112 -186.146,279.217Z" style="fill:#65829e;fill-rule:nonzero;"/></g></svg>