<?xml version="1.0" encoding="UTF-8" standalone="no"?>
<!DOCTYPE svg PUBLIC "-//W3C//DTD SVG 1.1//EN" "http://www.w3.org/Graphics/SVG/1.1/DTD/svg11.dtd">
<svg width="100%" height="100%" viewBox="0 0 800 800" version="1.1" xmlns="http://www.w3.org/2000/svg" xmlns:xlink="http://www.w3.org/1999/xlink" xml:space="preserve" xmlns:serif="http://www.serif.com/" style="fill-rule:evenodd;clip-rule:evenodd;stroke-linecap:round;stroke-linejoin:round;stroke-miterlimit:1.5;">
    <g transform="matrix(3.070177,0,0,4.859461,-304.604272,-564.195832)">
        <rect x="145.261" y="139.85" width="168.477" height="106.444" style="stroke:white;stroke-width:0.25px;"/>
    </g>
    <g transform="matrix(42.105263,0,0,42.105263,105.267352,-19.361335)">
        <path d="M12.382,5.304L10.096,7.59L10.102,7.61L11.838,14C11.898,14.283 11.82,14.578 11.627,14.794L11.054,15.367C10.99,15.442 10.895,15.485 10.797,15.485C10.664,15.485 10.543,15.408 10.488,15.287L8.14,11.037L7.395,10.291L5.425,12.261C5.199,12.462 4.947,12.632 4.675,12.765L5.115,14.212C5.183,14.492 5.108,14.788 4.916,15.002L4.741,15.178C4.556,15.361 4.254,15.361 4.069,15.178L3.029,14.139L3.011,14.119L2.223,13.333L2.203,13.313L1.165,12.274C0.982,12.089 0.982,11.787 1.165,11.602L1.341,11.426C1.556,11.235 1.852,11.161 2.131,11.229L3.578,11.667C3.711,11.395 3.881,11.143 4.082,10.917L6.052,8.947L5.306,8.203L1.056,5.855C0.935,5.8 0.858,5.679 0.858,5.546C0.858,5.448 0.901,5.353 0.976,5.289L1.549,4.716C1.765,4.523 2.06,4.445 2.343,4.505L8.733,6.241L8.753,6.247L11.039,3.961C11.409,3.589 12.66,2.941 13.032,3.311C13.402,3.683 12.753,4.933 12.382,5.304Z" style="fill:white;fill-rule:nonzero;"/>
    </g>
</svg>
