<svg preserveAspectRatio="none" width="100%" height="100%" overflow="visible" style="display: block;" viewBox="0 0 440.642 466.288" fill="none" xmlns="http://www.w3.org/2000/svg">
<g id="Group">
<path id="Vector" d="M285.465 312.689C244.555 351.283 182.169 347.171 146.07 303.007C110.174 258.893 114.156 191.969 155.192 153.405C196.057 114.621 258.481 118.927 294.45 162.925C330.611 207.012 326.465 274.073 285.464 312.689L285.465 312.689ZM440.523 225.546C440.285 216.45 439.475 207.461 438.242 198.661L394.631 190.9L379.85 146.586L408.908 110.806C400.095 95.0562 389.607 80.5602 377.753 67.5186L338.213 88.8375L301.963 62.3632L305.882 15.0024C290.848 8.19217 274.949 3.07393 258.444 0L237.901 42.1432L194.058 43.2474L171.54 2.26921C154.687 6.39284 138.579 12.5342 123.465 20.5142L129.925 67.5493L95.0809 96.1769L54.4795 77.3513C43.335 91.0507 33.6144 106.149 25.6277 122.429L56.5262 156.358L44.0795 201.482L0.926732 211.923C0.151203 221.259 -0.17999 230.803 0.0962043 240.498C0.402362 249.347 1.14193 258.023 2.25905 266.581L45.887 274.476L60.5346 318.841L31.2811 354.537C40.1234 370.297 50.5629 384.952 62.422 398.031L102.039 376.846L138.218 403.433L134.117 450.805C149.632 457.856 165.995 463.165 183.008 466.288L203.435 424.044L247.273 422.743L269.866 463.663C286.707 459.458 302.789 453.226 317.893 445.211L311.307 398.202L346.031 369.413L386.676 388.12C397.824 374.323 407.518 359.201 415.44 342.937L384.361 309.143L396.654 263.884L439.837 253.369C440.534 244.194 440.825 234.901 440.523 225.546H440.523Z" fill="var(--fill-0, #516784)"/>
<path id="Vector_2" d="M306.35 338.224C252.307 389.225 169.891 383.512 122.407 325.448C74.7886 267.277 80.1454 178.846 134.182 127.785C188.279 76.7763 270.753 82.5628 318.246 140.646C365.75 198.696 360.447 287.216 306.35 338.224ZM328.891 130.613C276.237 66.2179 184.802 59.8029 124.827 116.354C64.9183 172.964 58.9807 271.002 111.772 335.494C164.416 399.868 255.786 406.201 315.701 349.658C375.676 293.108 381.556 194.969 328.891 130.613Z" fill="var(--fill-0, #D8D9DA)"/>
<path id="Vector_3" d="M136.774 402.371L138.218 403.433L134.861 450.4L134.117 450.805C149.632 457.856 165.995 463.165 183.008 466.287L182.608 465.518L203.435 424.044L247.273 422.743L270.3 462.853L269.866 463.662C286.707 459.458 302.789 453.225 317.893 445.211L317.171 444.877L311.307 398.202L346.031 369.413L386.633 387.321L386.676 388.12C397.824 374.323 407.518 359.201 415.44 342.937L414.677 343.157L384.361 309.143L396.654 263.884L439.276 252.787L439.837 253.369C440.534 244.194 440.825 234.901 440.523 225.545C440.285 216.45 439.475 207.461 438.242 198.661L437.778 199.334L425.544 196.942C343.631 323.806 228.262 378.788 136.774 402.371L136.774 402.371Z" fill="var(--fill-0, #3E5770)"/>
<path id="Vector_4" d="M315.701 349.658C336.276 330.259 350.481 305.964 358.143 279.818C350.126 287.671 341.975 295.087 333.722 302.089C326.726 315.346 317.612 327.606 306.35 338.224C281.752 361.437 251.276 372.862 220.892 372.989C211.006 377.432 201.189 381.461 191.498 385.108C234.255 394.418 280.428 382.946 315.701 349.658Z" fill="var(--fill-0, #B1B2B3)"/>
<path id="Vector_5" d="M131.462 57.285L127.266 19.1787C127.266 19.1787 148.248 7.29581 164.272 4.42785C164.272 4.42785 138.329 14.6715 131.462 57.285Z" fill="var(--fill-0, #65829E)"/>
</g>
</svg>
