<?xml version="1.0" encoding="UTF-8" standalone="no"?><!DOCTYPE svg PUBLIC "-//W3C//DTD SVG 1.1//EN" "http://www.w3.org/Graphics/SVG/1.1/DTD/svg11.dtd"><svg width="100%" height="100%" viewBox="0 0 11267 6534" version="1.1" xmlns="http://www.w3.org/2000/svg" xmlns:xlink="http://www.w3.org/1999/xlink" xml:space="preserve" xmlns:serif="http://www.serif.com/" style="fill-rule:evenodd;clip-rule:evenodd;stroke-linejoin:round;stroke-miterlimit:2;"><g id="Background"><path d="M5126.489,659.914c138.454,3.152 4259.543,0.224 4328.735,0.553c1092.613,5.19 1098.471,-15.461 1229.476,39.363c18.121,10.752 131.516,78.034 149.44,216.892c12.204,94.543 2.972,3863.333 2.149,4199.274c-0.396,161.842 56.776,517.655 -281.013,528.281c-60.336,1.898 -2628.734,0.489 -2857.319,0.364c-7018.914,-3.85 -7021.345,6.929 -7099.844,-16.285c-188.847,-77.356 -174.044,-120.434 -174.252,-455.247c-0.459,-737.969 2.118,-752.433 -4.207,-1185.825c4.745,-309.012 3.647,-417.623 4.235,-2571.522c0.124,-453.082 -43.588,-668.982 229.844,-746.506c69.362,-19.666 3580.86,-1.935 4472.756,-9.342Z" style="fill:#baafa5;"/><path d="M4453.646,3968.228c-81.777,39.915 -87.351,20.854 -1170.274,25.756c-857.862,3.884 -2739.654,-5.726 -2743.834,5.991c-3.254,9.122 -0.425,366.988 -1.574,815.99c-1.382,540.219 -1.771,540.373 6.188,586.626c4.551,26.444 11.627,28.358 -0.902,41.989c-3.881,4.222 -8.853,7.347 -12.733,11.569c-47.087,-147.253 -18.928,-150.84 -22.52,-3983.26c-0.492,-525.198 -28.28,-648.294 147.858,-725.483c73.385,-32.16 78.587,-14.375 9485.105,-16.636c342.035,-0.082 544.773,-34.673 599.973,170.686c17.774,66.123 8.091,2999.295 4.736,3102.301c-191.533,-20.169 -2530.055,-5.136 -2590.552,-3.07c-105.091,3.59 -103.525,-6.177 -1314.401,-1.916c-36.583,0.129 -437.491,1.54 -457.291,-0.511c-5.908,-0.612 -32.865,-3.403 -71.268,20.815c-7.873,-7.817 -15.747,-15.633 -23.62,-23.45c-60.161,7.157 -59.261,9.117 -76.441,6.624c-125.526,-18.212 -1240.977,-1.141 -1714.207,-9.368c-39.642,-0.689 -42.221,-23.051 -44.243,-24.654Z" style="fill:#ddded9;"/><path d="M4453.646,3968.228c2.023,1.603 4.601,23.965 44.243,24.654c473.23,8.227 1588.681,-8.844 1714.207,9.368c17.181,2.493 16.28,0.533 76.441,-6.624c7.873,7.817 15.747,15.633 23.62,23.45c38.403,-24.218 65.36,-21.426 71.268,-20.815c19.8,2.05 420.708,0.639 457.291,0.511c1210.876,-4.261 1209.31,5.507 1314.401,1.916c60.496,-2.067 2399.019,-17.099 2590.552,3.07c6.369,107.066 11.683,196.411 4.363,1340.678c-1.678,262.24 -181.935,233.487 -380.413,233.99c-551.63,1.398 -9126.416,0.939 -9229.228,1.291c-481.128,1.651 -504.96,13.168 -609.874,-123.568c3.881,-4.222 8.853,-7.347 12.733,-11.569c12.529,-13.63 5.452,-15.544 0.902,-41.989c-7.959,-46.253 -7.57,-46.407 -6.188,-586.626c1.149,-449.002 -1.68,-806.869 1.574,-815.99c4.18,-11.717 1885.972,-2.107 2743.834,-5.991c1082.923,-4.903 1088.496,14.159 1170.274,-25.756Z" style="fill:#c6c4bc;"/><path d="M612.399,251.102l42.572,0.877c253.868,-2.494 334.767,-0.27 385.66,0.092c192.915,-0.192 191.629,-1.636 385.779,-0.038c219.217,0.189 329.041,-0.732 357.653,-0.972c31.181,0.513 31.041,0.294 385.567,0.116l28.262,1.079c668.877,-0.149 668.484,-0.106 743.403,-0.918c128.39,2.697 354.764,0.366 385.611,0.048l13.512,0.978c790.636,0.27 1581.272,0.54 2371.908,0.81c528.621,0.133 1057.242,0.266 1585.862,0.399c257.128,0.026 514.256,0.052 771.385,0.079c633.262,-0.05 1266.524,-0.099 1899.786,-0.149c123.927,0.003 247.854,0.006 371.78,0.009c128.596,-0.083 257.193,-0.166 385.789,-0.25c44.058,2.654 320.754,19.324 467.547,292.915c82.581,175.81 71.471,182.195 71.647,712.425c-58.359,-91.331 15.463,-498.946 -53.66,-553.453c-56.072,-44.215 -9.737,-82.927 -69.305,-162.957c-123.454,-165.861 -204.588,-188.333 -473.645,-186.574c-12.546,0.082 -4851.767,-2.288 -5114.666,0.653c-35.966,0.402 -230.002,165.889 -414.189,282.984c-0,0 -14.167,20.661 -14.167,20.661c-891.896,7.406 -4403.394,-10.324 -4472.756,9.342c-273.432,77.525 -229.721,293.424 -229.844,746.506c-0.588,2153.899 0.51,2262.51 -4.235,2571.522c6.326,433.392 3.749,447.857 4.207,1185.825c0.208,334.813 -14.594,377.891 174.252,455.247c-4.339,1.671 -8.881,-6.124 -13.22,-4.453c-34.285,13.204 -18.558,30.391 15.944,43.18c88.956,32.975 92.221,19.032 1682.61,23.09c37.316,0.095 3038.499,-0.955 3042.935,0.803c6.046,2.396 8.571,10.526 14.617,12.921c-64.229,39.466 -98.266,30.573 -252.34,133.478c-28.093,18.763 -261.771,174.833 -377.05,190.152c-28.952,3.847 -28.004,2.24 -56.697,6.644c-14.179,2.176 -29.722,-1.893 -42.86,3.865c-7.798,3.417 -6.482,17.759 -14.279,21.177c-302.875,1.854 -1720.729,10.534 -3786.005,4.606c-409.57,-1.176 -624.237,47.894 -781.572,-304.934c-0,-0 -25.384,-13.796 -25.384,-13.796c-3.755,-113.186 -4.134,-250.206 -4.194,-271.966l-0.164,-14.122c-0.135,-119.154 -0.269,-238.308 -0.404,-357.462l0.138,-14.11c-0.027,-128.571 -0.054,-257.142 -0.081,-385.713c0.041,-128.57 0.082,-257.139 0.123,-385.709c-0.301,-186.517 -0.139,-185.683 0.453,-371.637c0.152,-119.041 0.304,-238.083 0.457,-357.124l0.173,-28.569c-0.013,-128.589 -0.026,-257.178 -0.039,-385.766l-0.051,-13.99c0.025,-123.971 0.05,-247.942 0.075,-371.914l-0.069,-28.079c-0.716,-179.267 -0.326,-178.295 -0.089,-357.582l0.027,-28.195c-0.301,-187.33 0.056,-185.761 0.274,-271.804l0.123,-14.114c-0.218,-123.88 -0.436,-247.76 -0.654,-371.64c-0.287,-128.554 -0.574,-257.108 -0.861,-385.662c-0.017,-128.571 -0.033,-257.143 -0.05,-385.714l0.243,-28.371c0.808,-89.285 -11.327,-204.746 74.017,-369.075l8.952,-16.775c77.495,-113.75 82.763,-108.1 162.04,-179.696c176.352,-106.032 225.342,-95.032 367.147,-99.198Z" style="fill:#e4e4e1;"/><path d="M5126.489,659.914l14.167,-20.661c184.187,-117.094 378.223,-282.581 414.189,-282.984c262.899,-2.941 5102.12,-0.571 5114.666,-0.653c269.058,-1.759 350.191,20.713 473.645,186.574c59.568,80.031 13.233,118.742 69.305,162.957c69.123,54.506 -4.699,462.121 53.66,553.453c-2.634,4100.967 2.865,4100.783 -1.721,4457.341c-43.487,0.16 -17.7,28.048 -56.803,96.916c-46.992,82.761 -159.916,221.284 -352.046,248.018c-30.567,4.253 -5949.411,7.691 -6257.778,-1.663c7.798,-3.417 6.482,-17.759 14.279,-21.177c13.138,-5.758 28.681,-1.688 42.86,-3.865c28.693,-4.404 27.744,-2.796 56.697,-6.644c115.279,-15.319 348.957,-171.389 377.05,-190.152c154.075,-102.904 188.111,-94.011 252.34,-133.478c183.66,-23.302 184.286,-20.276 2314.103,-14.874c734.892,1.864 734.364,-0.904 2314.413,0.156c702.096,0.471 723.277,15.831 838.187,-105.926c91.507,-96.959 72.408,-115.396 73.141,-1281.611c1.448,-2303.373 -6.338,-2304.102 9.042,-2354.808c-31.759,-149.27 31.287,-967.81 -38.53,-1114.92c-7.175,-15.118 -58.179,-122.587 -140.36,-155.103c-2.6,-1.029 -1.876,1.642 -26.294,23.019c-131.005,-54.825 -136.863,-34.173 -1229.476,-39.363c-69.193,-0.329 -4190.281,2.6 -4328.735,-0.553Z" style="fill:#cfcec5;"/><path d="M11264.4,5715.942c1.536,94.653 25.409,261.885 -125.361,426.845c-119.687,130.951 -285.172,136.898 -312.478,137.879c-120.001,4.312 -8148.932,-0.193 -8857.535,-0.59c-1380.254,-0.774 -1380.125,2.206 -1500.13,1.036c-427.038,-4.164 -465.736,-413.562 -466.915,-422.657c0.491,-56.951 -1.231,-56.175 2.83,-113.366l25.384,13.796c157.335,352.828 372.002,303.758 781.572,304.934c2065.276,5.928 3483.13,-2.752 3786.005,-4.606c308.367,9.354 6227.212,5.917 6257.778,1.663c192.13,-26.734 305.054,-165.258 352.046,-248.018c39.103,-68.868 13.317,-96.756 56.803,-96.916Z" style="fill:#b2a699;"/><path d="M10684.7,699.83c24.418,-21.377 23.694,-24.047 26.294,-23.019c82.182,32.516 133.185,139.984 140.36,155.103c69.817,147.111 6.771,965.65 38.53,1114.92c-15.381,50.705 -7.595,51.435 -9.042,2354.808c-0.733,1166.215 18.365,1184.653 -73.141,1281.611c-114.91,121.756 -136.09,106.397 -838.187,105.926c-1580.049,-1.059 -1579.521,1.708 -2314.413,-0.156c-2129.817,-5.402 -2130.443,-8.428 -2314.103,14.874c-6.046,-2.396 -8.571,-10.526 -14.617,-12.921c-4.436,-1.758 -3005.619,-0.708 -3042.935,-0.803c-1590.389,-4.058 -1593.654,9.885 -1682.61,-23.09c-34.502,-12.789 -50.228,-29.977 -15.944,-43.18c4.339,-1.671 8.881,6.124 13.22,4.453c78.499,23.215 80.93,12.436 7099.844,16.285c228.586,0.125 2796.983,1.534 2857.319,-0.364c337.789,-10.626 280.617,-366.439 281.013,-528.281c0.823,-335.941 10.055,-4104.732 -2.149,-4199.274c-17.924,-138.858 -131.319,-206.14 -149.44,-216.892Z" style="fill:#eee7df;"/></g></svg>