<svg preserveAspectRatio="none" width="100%" height="100%" overflow="visible" style="display: block;" viewBox="0 0 861.44 108.8" fill="none" xmlns="http://www.w3.org/2000/svg">
<g id="PlaneWithBanner 1" clip-path="url(#clip0_0_4)">
<path id="Vector" d="M603.251 7.62939e-07H642.534V0.633601C637.152 1.4336 630.003 -1.056 625.51 2.5024C624.755 20.0896 628.435 38.88 627.142 55.872C628.614 57.6576 631.75 57.6 632.87 59.0976C602.579 56.8256 572.237 61.2736 542.381 66.2272C489.459 75.3024 436.41 83.9296 383.04 89.9264C348.896 92.1984 311.808 99.5584 279.494 85.3504C279.91 84.6592 279.987 83.8464 280.026 83.0592C281.754 65.9072 280.992 48.6144 282.33 31.4368C274.17 34.5152 267.072 40.2432 259.213 44.1216C258.746 43.6736 258.285 43.232 257.83 42.7904C265.798 37.7088 274.163 33.0688 282.413 28.4096C292.966 30.784 303.622 33.1392 314.496 33.6896C412.07 37.3824 506.707 8.7168 603.226 7.62939e-07L603.251 7.62939e-07Z" fill="var(--fill-0, #EB6C64)"/>
<path id="Vector_2" d="M625.511 2.5024C630.003 -1.056 637.152 1.4336 642.535 0.633598C650.112 0.710398 657.67 1.8304 665.011 3.7056C668.506 5.0496 669.741 8.5888 668.563 12.0512C668.051 22.9056 669.651 33.7792 669.594 44.6464C670.49 51.0656 668.326 59.9936 673.965 64.7104C660.762 61.6064 647.29 59.8272 633.779 58.8224C633.607 59.8208 633.267 61.8304 633.101 62.8288C633.03 61.5872 632.973 60.3392 632.871 59.0976C631.751 57.6 628.614 57.6576 627.142 55.872C628.435 38.88 624.755 20.0896 625.511 2.5024Z" fill="var(--fill-0, #E8544F)"/>
<path id="Vector_3" d="M665.024 3.7056C673.318 5.3568 681.606 8.2944 688.57 13.1776C689.408 20.6592 687.418 29.6704 689.414 36.3648C715.091 31.7312 740.877 25.0624 767.264 25.5808C790.144 23.0464 812.48 29.6704 834.739 33.7792C844.454 34.048 853.715 37.9968 861.453 43.712V44.3072C853.664 42.1504 846.618 45.5424 839.789 48.8128C829.882 49.7984 818.554 44.1472 809.843 51.4304C803.238 57.2672 793.658 55.8912 786.029 56.896C792.32 71.936 812.582 69.9264 822.528 81.7984C829.037 91.1616 841.408 93.6128 850.451 97.9392C841.709 99.0144 831.917 101.19 822.995 98.6752C800.73 89.888 776.166 92.864 752.819 92.2688C719.603 98.9056 686.163 104.384 652.589 108.8H649.114C630.054 108.8 630.81 85.824 632.89 72.7872C635.162 77.2096 628.026 94.8736 637.312 89.4336C653.235 79.5968 674.502 95.7248 688.666 82.2848C690.445 73.792 681.856 66.2976 673.978 64.7104C668.339 59.9936 670.502 51.0656 669.606 44.6464C669.664 33.7792 668.064 22.9056 668.576 12.0512C669.754 8.5888 668.518 5.0496 665.024 3.7056Z" fill="var(--fill-0, #EA6A63)"/>
<path id="Vector_4" d="M78.1504 14.6176C91.5392 11.264 106.054 13.92 119.456 16.8384C121.587 17.7664 127.424 18.9184 124.275 21.8944C109.901 31.008 93.8816 37.0304 78.6112 44.4352C65.0432 45.1648 51.4496 44.7232 37.8688 44.7168C37.2928 43.5328 36.9408 42.2144 37.6704 41.0048C51.9616 33.5168 65.3312 24.3392 78.1504 14.6176Z" fill="var(--fill-0, #214C4D)"/>
<path id="Vector_5" d="M178.835 24.3136C184.723 22.5088 190.995 22.9248 197.088 22.4576C196.518 31.9744 195.846 41.4912 195.04 50.9952C195.034 52.4416 194.202 53.6 192.666 53.0112C183.27 51.3728 173.491 51.3984 164.32 48.8128C171.13 41.7984 171.347 30.6432 178.835 24.3136Z" fill="var(--fill-0, #214C4D)"/>
<path id="Vector_6" d="M2.44141e-05 58.5152C1.56162 46.4192 4.99842 29.6 19.6224 27.6736C28.8192 26.528 32.4544 36.032 37.6704 41.0048C36.9408 42.2144 37.2928 43.5328 37.8688 44.7168C39.8464 50.4768 40.1984 56.6656 40.2944 62.7072C40.6976 68.7168 37.0944 74.4448 37.1776 80.0768C35.1552 81.728 33.7536 83.9808 32.8128 86.3872C28.4672 91.1424 21.9648 94.7648 15.4432 92.1536C4.55042 86.9568 1.53602 73.952 2.44141e-05 63.1168L2.44141e-05 58.5152ZM10.368 33.3504C-1.01758 47.7952 -1.48478 69.7856 8.65283 84.9984C12.2816 83.6608 11.9808 89.1136 15.3024 87.6096C15.7312 81.6448 14.5408 75.3536 16.5568 69.6192C19.5264 73.1072 18.656 67.5456 18.3808 65.0944C19.5264 57.216 22.2656 64.3392 23.2064 68.3264C20.9088 76.2304 29.5168 78.0032 35.0208 79.2448C40.8192 67.9488 39.456 54.0672 35.7888 42.2016C31.9616 45.28 23.616 43.0656 23.7312 49.3184C23.0144 51.8336 21.1072 62.304 19.6288 57.7664C18.6432 55.264 21.7536 44.7936 17.7728 48.7296C14.0352 43.9744 21.0048 26.4128 10.368 33.3504ZM32.6848 82.0992C30.496 83.04 27.904 83.4752 26.208 85.28C27.7184 89.7792 36.1792 82.3104 32.6848 82.0992Z" fill="var(--fill-0, #EDDDC2)"/>
<path id="Vector_7" d="M10.3681 33.3504C21.0049 26.4128 14.0353 43.9744 17.7729 48.7296C21.7537 44.7936 18.6433 55.264 19.6289 57.7664C18.0865 55.0272 19.6033 51.2768 17.4209 48.9408C13.5809 54.6944 14.2657 62.0416 16.0577 68.3712C17.8241 68.7744 17.5809 66.1376 18.3809 65.0944C18.6561 67.5456 19.5265 73.1072 16.5569 69.6192C14.5409 75.3536 15.7313 81.6448 15.3025 87.6096C11.9809 89.1136 12.2817 83.6608 8.65293 84.9984C-1.48467 69.7856 -1.01747 47.7952 10.3681 33.3504Z" fill="var(--fill-0, #E4C891)"/>
<path id="Vector_8" d="M117.523 36.3648C120.134 34.0224 125.126 35.2576 126.099 38.656C127.418 41.4784 122.125 44.5056 126.182 46.0416C127.29 52.3008 117.427 53.664 113.798 49.9392C114.061 47.2512 115.846 44.8128 118.566 44.2496C123.59 43.7376 121.446 37.0688 117.523 36.3648Z" fill="var(--fill-0, #33514D)"/>
<path id="Vector_9" d="M118.566 44.2496C116.179 42.2464 116.134 38.9632 117.523 36.3648C121.446 37.0688 123.59 43.7376 118.566 44.2496Z" fill="var(--fill-0, #DDD8BE)"/>
<path id="Vector_10" d="M23.7314 49.3184C23.6162 43.0656 31.9618 45.28 35.789 42.2016C39.4562 54.0672 40.8194 67.9488 35.021 79.2448C29.517 78.0032 20.909 76.2304 23.2066 68.3264C23.7826 69.28 23.9362 71.3344 25.453 70.944C29.6066 64.8512 31.1554 56.2816 27.0914 49.7536C26.381 48.3712 24.1602 46.9824 23.7314 49.3184Z" fill="var(--fill-0, #C26A67)"/>
<path id="Vector_11" d="M236.883 54.656C243.526 50.0992 251.085 47.0208 257.83 42.7904C258.285 43.232 258.746 43.6736 259.213 44.1216C252.691 48.6464 244.947 51.328 238.752 56.2816C252.621 65.0432 266.086 74.4192 280.026 83.0592C279.987 83.8464 279.91 84.6592 279.494 85.3504C265.011 76.096 250.726 66.496 236.218 57.312C224.166 56.5696 211.974 57.0048 199.891 57.0368C181.37 63.1104 162.445 67.8336 143.514 72.4224C141.235 72.8576 141.107 75.52 143.046 76.512C146.093 79.5776 139.258 83.5648 138.067 79.5072C138.355 76.0704 134.944 75.4112 132.442 74.976C113.664 78.5344 94.784 82.5408 75.616 83.2512C91.9296 76.1536 109.466 71.0144 124.403 60.9344C124.666 60.1024 124.787 59.2384 124.947 58.3808C148.698 55.9872 172.723 56.1152 196.525 53.792C209.837 55.9744 223.501 55.0912 236.883 54.656Z" fill="var(--fill-0, #C05B4F)"/>
<path id="Vector_12" d="M37.8687 44.7168C51.4495 44.7232 65.0431 45.1648 78.6111 44.4352C89.8495 48.128 107.61 38.432 113.798 49.9392C117.427 53.664 127.29 52.3008 126.182 46.0416C138.118 44.1728 151.706 49.8688 164.32 48.8128C173.491 51.3984 183.27 51.3728 192.666 53.0112C194.202 53.6 195.034 52.4416 195.04 50.9952C194.925 52.1856 195.603 53.12 196.525 53.792C172.723 56.1152 148.698 55.9872 124.947 58.3808C112.877 53.3376 99.1615 53.8176 86.3167 52.4352C78.1951 50.7136 73.4015 58.048 67.1679 61.536C58.2143 61.3632 49.1583 61.312 40.2943 62.7072C40.1983 56.6656 39.8463 50.4768 37.8687 44.7168Z" fill="var(--fill-0, #D07676)"/>
<path id="Vector_13" d="M23.7312 49.3184C24.16 46.9824 26.3808 48.3712 27.0912 49.7536C31.1552 56.2816 29.6064 64.8512 25.4528 70.944C23.936 71.3344 23.7824 69.28 23.2064 68.3264C22.2656 64.3392 19.5264 57.216 18.3808 65.0944C17.5808 66.1376 17.824 68.7744 16.0576 68.3712C14.2656 62.0416 13.5808 54.6944 17.4208 48.9408C19.6032 51.2768 18.0864 55.0272 19.6288 57.7664C21.1072 62.304 23.0144 51.8336 23.7312 49.3184Z" fill="var(--fill-0, #2B4D4F)"/>
<path id="Vector_14" d="M67.168 61.536C73.4016 58.048 78.1952 50.7136 86.3168 52.4352C99.1616 53.8176 112.877 53.3376 124.947 58.3808C124.787 59.2384 124.666 60.1024 124.403 60.9344C109.466 71.0144 91.9296 76.1536 75.616 83.2512C72.768 83.9936 70.0928 85.3184 67.2 85.9072C59.1744 81.92 48.0064 78.1056 40.7104 86.336C38.0736 86.368 35.4432 86.3424 32.8128 86.3872C33.7536 83.9808 35.1552 81.728 37.1776 80.0768C48.1536 75.7632 58.0736 68.96 67.168 61.536Z" fill="var(--fill-0, #1D474B)"/>
<path id="Vector_15" d="M633.779 58.8224C647.29 59.8272 660.762 61.6064 673.965 64.7104C681.843 66.2976 690.432 73.792 688.653 82.2848C674.49 95.7248 653.222 79.5968 637.299 89.4336C628.013 94.8736 635.149 77.2096 632.877 72.7872C633.043 69.472 632.928 66.144 633.101 62.8288C633.267 61.8304 633.606 59.8208 633.779 58.8224Z" fill="var(--fill-0, #B91E18)"/>
<path id="Vector_16" d="M40.2944 62.7072C49.1584 61.312 58.2144 61.3632 67.168 61.536C58.0736 68.96 48.1536 75.7632 37.1776 80.0768C37.0944 74.4448 40.6976 68.7168 40.2944 62.7072Z" fill="var(--fill-0, #BA5852)"/>
<path id="Vector_17" d="M40.7105 86.336C48.0065 78.1056 59.1745 81.92 67.2001 85.9072C59.0209 84.5568 72.3649 97.3248 62.8544 94.7776C58.3808 92.6592 59.7888 97.9328 59.0784 99.8848C61.0817 92.0448 39.1937 90.9376 42.0161 100.454C40.3393 95.1552 36.6849 92.4224 40.7105 86.336Z" fill="var(--fill-0, #B7584F)"/>
<path id="Vector_18" d="M32.6849 82.0992C36.1793 82.3104 27.7185 89.7792 26.2081 85.28C27.9041 83.4752 30.4961 83.04 32.6849 82.0992Z" fill="var(--fill-0, #5A6D61)"/>
<path id="Vector_19" d="M42.016 100.454C39.1936 90.9376 61.0816 92.0448 59.0784 99.8848C57.408 107.846 44.5632 108.134 42.016 100.454Z" fill="var(--fill-0, #2B5453)"/>
<path id="Vector_20" d="M603.399 7.62939e-07H617.779C616.224 0.364801 614.682 0.742401 613.171 1.152C576.045 0.800001 539.527 10.7584 502.957 14.752C536.186 8.4736 569.6 2.336 603.399 7.62939e-07Z" fill="var(--fill-0, #E27B66)"/>
<path id="Vector_21" d="M617.779 7.62939e-07H635.84L636.282 0.435201L635.68 0.524801C635.232 0.576001 634.33 0.665601 633.882 0.716801C629.792 0.857601 625.728 0.972801 621.645 1.0432C620.608 1.0432 618.541 1.0368 617.51 1.0304L616.915 1.0432C615.661 1.088 614.413 1.152 613.171 1.152C614.682 0.742401 616.224 0.364801 617.779 7.62939e-07Z" fill="var(--fill-0, #E26D5C)"/>
<path id="Vector_22" d="M635.84 7.62939e-07H642.176L642.56 0.480001C640.448 0.492801 638.387 0.601601 636.282 0.435201L635.84 7.62939e-07Z" fill="var(--fill-0, #E68868)"/>
<path id="Vector_23" d="M502.957 14.752C539.527 10.7584 576.045 0.800001 613.171 1.152C614.413 1.152 615.661 1.088 616.915 1.0432C610.637 6.5216 616.851 16.9728 614.771 24.224C619.859 34.1952 613.747 47.0464 618.042 56.4416C618.413 56.5504 619.149 56.7552 619.52 56.8576C611.072 58.4576 600.064 54.7456 593.127 59.552C536.781 65.088 481.453 78.0032 425.223 84.5696C398.752 86.9376 372.032 90.368 345.504 92.8064L344.915 92.7872C342.656 93.0112 340.442 92.736 338.208 92.8384C318.727 93.0624 299.066 91.7376 280.352 85.7472C280.199 84.9472 280.039 84.1472 279.898 83.3472L280.231 82.9632C284.263 66.944 282.253 47.5456 282.17 31.6032C281.907 31.5776 281.383 31.52 281.12 31.4944C281.946 30.5792 283.143 29.5936 282.055 28.384C290.803 29.952 299.437 32.448 308.327 33.3824C310.221 34.304 312.269 34.4064 314.304 33.952L314.893 33.9008C317.85 34.272 320.839 34.5728 323.827 34.5856C331.987 34.5344 340.147 34.624 348.307 34.5536C354.362 33.6576 360.755 35.424 366.599 33.1904C386.387 31.3792 406.163 29.0816 425.92 26.8288C451.635 25.0624 477.645 19.9616 502.957 14.752Z" fill="var(--fill-0, #EB6B65)"/>
<path id="Vector_24" d="M621.645 1.0432C625.728 0.972799 629.792 0.857599 633.882 0.716799C632.851 0.851199 630.79 1.1264 629.76 1.2672C628.262 1.504 626.547 1.3952 625.37 2.4832C624.941 19.6864 628.064 36.7936 627.258 53.9776C625.894 56.7104 630.035 56.992 631.667 58.1824C630.47 58.1888 629.286 58.2272 628.109 58.2272C626.138 56.7296 622.592 56.4224 623.456 53.1456C625.894 35.7376 618.739 18.4128 621.645 1.0432Z" fill="var(--fill-0, #EA625C)"/>
<path id="Vector_25" d="M633.882 0.716799C634.33 0.665599 635.232 0.575999 635.68 0.524799C629.05 18.208 639.674 40.544 633.965 58.6752L633.472 58.9184L632.96 59.1872C632.762 58.9888 632.358 58.5984 632.16 58.4064C630.477 40.6336 630.963 20.1344 629.76 1.2672C630.79 1.1264 632.851 0.851199 633.882 0.716799Z" fill="var(--fill-0, #E95A54)"/>
<path id="Vector_26" d="M635.68 0.524799L636.282 0.435199C638.387 0.601599 640.448 0.492799 642.56 0.479999L643.136 0.819199L643.648 1.152C642.88 1.4528 642.112 1.7216 641.28 1.9648C639.251 2.144 635.277 2.1504 637.37 5.8496C638.822 22.9952 637.344 40.224 638.682 57.376C637.146 57.92 635.482 58.2336 633.965 58.6752C639.674 40.544 629.05 18.208 635.68 0.524799Z" fill="var(--fill-0, #E85651)"/>
<path id="Vector_27" d="M643.136 0.819199C645.504 0.940799 647.936 1.0624 650.368 1.1776C649.92 1.1776 649.024 1.1776 648.576 1.184C646.912 1.1584 645.248 1.152 643.648 1.152L643.136 0.819199Z" fill="var(--fill-0, #E38062)"/>
<path id="Vector_28" d="M616.915 1.0432L617.51 1.0304C620.557 9.7088 616.819 21.0112 619.661 29.184C617.158 38.0608 624.019 48.736 618.041 56.4416C613.747 47.0464 619.859 34.1952 614.771 24.224C616.851 16.9728 610.637 6.5216 616.915 1.0432Z" fill="var(--fill-0, #EC6863)"/>
<path id="Vector_29" d="M617.51 1.0304C618.541 1.0368 620.608 1.0432 621.645 1.0432C618.739 18.4128 625.894 35.7376 623.456 53.1456C622.592 56.4224 626.138 56.7296 628.109 58.2272C627.264 58.2848 626.426 58.2976 625.6 58.2656C623.526 57.824 621.562 57.2992 619.52 56.8576C619.149 56.7552 618.413 56.5504 618.042 56.4416C624.019 48.736 617.158 38.0608 619.661 29.184C616.819 21.0112 620.557 9.7088 617.51 1.0304Z" fill="var(--fill-0, #EA655F)"/>
<path id="Vector_30" d="M625.37 2.4832C626.547 1.3952 628.263 1.504 629.76 1.2672C630.963 20.1344 630.477 40.6336 632.16 58.4064L631.667 58.1824C630.035 56.992 625.895 56.7104 627.258 53.9776C628.064 36.7936 624.941 19.6864 625.37 2.4832Z" fill="var(--fill-0, #EA5E58)"/>
<path id="Vector_31" d="M643.648 1.152C645.248 1.152 646.912 1.1584 648.576 1.184L648.192 1.6128C645.056 1.3312 643.648 3.808 645.248 6.784C645.312 23.8976 646.784 41.0048 647.04 58.144C645.312 58.7136 643.328 58.8416 641.536 59.0464C646.08 54.336 642.56 46.6304 642.88 40.7616C643.52 27.7632 641.28 14.912 641.28 1.9648C642.112 1.7216 642.88 1.4528 643.648 1.152Z" fill="var(--fill-0, #E84F4A)"/>
<path id="Vector_32" d="M648.576 1.184C649.024 1.1776 649.92 1.1776 650.368 1.1776C652.416 1.2992 654.464 1.4912 656.512 1.9392C657.664 2.5344 658.816 3.1744 659.968 3.808C662.912 15.4176 659.072 28.32 662.464 40.2176C664.576 47.36 659.584 57.12 665.664 62.8416C663.808 62.4896 661.888 62.272 660.032 62.1376L659.648 61.7152C658.432 43.744 658.048 25.4016 656.896 7.3344C659.2 2.5856 651.712 3.0016 648.768 1.7472L648.192 1.6128L648.576 1.184Z" fill="var(--fill-0, #E6554E)"/>
<path id="Vector_33" d="M637.37 5.8496C635.277 2.1504 639.251 2.144 641.28 1.9648C641.28 14.912 643.52 27.7632 642.88 40.7616C642.56 46.6304 646.08 54.336 641.536 59.0464C640.448 59.0656 638.227 59.104 637.12 59.1232C636.083 59.0656 635.066 59.008 634.048 58.9504L633.472 58.9184L633.965 58.6752C635.482 58.2336 637.146 57.92 638.682 57.376C637.344 40.224 638.823 22.9952 637.37 5.8496Z" fill="var(--fill-0, #EA524D)"/>
<path id="Vector_34" d="M645.248 6.784C643.648 3.808 645.056 1.3312 648.192 1.6128L648.768 1.7472C650.24 2.4576 651.776 3.168 653.12 4.1792C653.44 16.5312 654.272 28.8448 654.656 41.1584C657.408 47.2896 651.264 57.9072 658.56 61.5168C657.792 61.4144 657.088 61.3184 656.32 61.2416C653.632 60.9152 651.008 60.2304 648.32 60.0256C647.552 60.0128 646.784 60.0256 646.016 60.064C643.008 59.8208 640.064 59.3408 637.12 59.1232C638.227 59.104 640.448 59.0656 641.536 59.0464C643.328 58.8416 645.312 58.7136 647.04 58.144C646.784 41.0048 645.312 23.8976 645.248 6.784Z" fill="var(--fill-0, #E84B46)"/>
<path id="Vector_35" d="M648.768 1.7472C651.712 3.0016 659.2 2.5856 656.896 7.3344C658.048 25.4016 658.432 43.744 659.648 61.7152C659.392 61.664 658.816 61.568 658.56 61.5168C651.264 57.9072 657.408 47.2896 654.656 41.1584C654.272 28.8448 653.44 16.5312 653.12 4.1792C651.776 3.168 650.24 2.4576 648.768 1.7472Z" fill="var(--fill-0, #E7504A)"/>
<path id="Vector_36" d="M656.512 1.9392C659.264 2.5344 662.016 3.3152 664.768 3.9808C666.112 4.5632 667.392 5.216 668.672 5.8688C668.352 21.6256 669.44 37.3696 669.888 53.1392C670.4 57.1648 670.4 62.0608 673.92 64.8256C672.384 64.4288 670.848 64.0192 669.312 63.6416C664.96 58.88 668.096 51.9616 667.264 46.2912C666.112 33.1008 666.112 19.8784 665.28 6.6752C663.808 5.3184 661.696 4.768 659.968 3.808C658.816 3.1744 657.664 2.5344 656.512 1.9392Z" fill="var(--fill-0, #E45E56)"/>
<path id="Vector_37" d="M659.968 3.808C661.696 4.768 663.808 5.3184 665.28 6.6752C666.112 19.8784 666.112 33.1008 667.264 46.2912C668.096 51.9616 664.96 58.88 669.312 63.6416C668.096 63.3536 666.88 63.0912 665.664 62.8416C659.584 57.12 664.576 47.36 662.464 40.2176C659.072 28.32 662.912 15.4176 659.968 3.808Z" fill="var(--fill-0, #E65952)"/>
<path id="Vector_38" d="M664.768 3.9808C672.128 4.8512 679.168 7.5456 685.504 11.2576C692.288 18.2656 683.136 31.4304 689.92 38.016C687.744 52.4928 691.968 67.424 689.408 81.7344C689.088 74.7968 684.16 69.2608 678.4 65.9456C676.928 64.2048 674.816 62.6368 675.2 60.032C672.96 42.944 673.92 25.696 672.256 8.5632C671.616 7.1616 669.952 6.624 668.672 5.8688C667.392 5.216 666.112 4.5632 664.768 3.9808Z" fill="var(--fill-0, #E2685D)"/>
<path id="Vector_39" d="M668.672 5.8688C669.952 6.624 671.616 7.1616 672.256 8.5632C673.92 25.696 672.96 42.944 675.2 60.032C674.816 62.6368 676.928 64.2048 678.4 65.9456C676.928 65.536 675.392 65.2288 673.92 64.8256C670.4 62.0608 670.4 57.1648 669.888 53.1392C669.44 37.3696 668.352 21.6256 668.672 5.8688Z" fill="var(--fill-0, #E4635A)"/>
<path id="Vector_40" d="M685.504 11.2576C695.744 15.1488 680.128 40.064 694.976 35.872C693.312 36.6976 691.648 37.4528 689.92 38.016C683.136 31.4304 692.288 18.2656 685.504 11.2576Z" fill="var(--fill-0, #DE7A62)"/>
<path id="Vector_41" d="M82.3426 13.2608C85.9842 12.3904 89.7346 12.9344 93.4018 13.3632C92.9282 13.3888 91.981 13.44 91.5138 13.4656C88.4482 13.4272 85.3954 13.2288 82.3426 13.2608Z" fill="var(--fill-0, #ACAC8A)"/>
<path id="Vector_42" d="M37.6706 40.9344C53.7474 33.6576 66.765 20.8384 82.3426 13.2608C85.3954 13.2288 88.4482 13.4272 91.5138 13.4656C96.8194 14.1568 102.17 14.3616 107.507 14.6944C110.899 15.5584 114.343 16.3968 117.856 16.5248C120.333 17.4016 127.642 18.464 124.25 21.8816C109.939 30.9504 94.0418 37.1072 78.733 44.2688C78.445 44.2624 77.8818 44.2496 77.5938 44.2496C64.2946 43.9872 50.989 44.2176 37.6898 44.2304C36.8322 43.2256 37.1458 42.0032 37.6706 40.9344Z" fill="var(--fill-0, #1E4B4D)"/>
<path id="Vector_43" d="M91.5136 13.4656C91.9808 13.44 92.928 13.3888 93.4016 13.3632C98.1248 13.4528 102.867 13.7152 107.507 14.6944C102.17 14.3616 96.8192 14.1568 91.5136 13.4656Z" fill="var(--fill-0, #858E71)"/>
<path id="Vector_44" d="M107.507 14.6944C110.989 15.0528 114.528 15.3536 117.856 16.5248C114.342 16.3968 110.899 15.5584 107.507 14.6944Z" fill="var(--fill-0, #888E70)"/>
<path id="Vector_45" d="M425.92 26.8288C451.578 22.7264 477.216 18.2976 502.957 14.752C477.645 19.9616 451.635 25.0624 425.92 26.8288Z" fill="var(--fill-0, #E27A65)"/>
<path id="Vector_46" d="M178.867 24.2304C185.888 23.5392 200.858 18.0736 196.512 30.0992C196.256 32.6592 196.051 35.2256 195.879 37.7984C195.847 38.2464 195.783 39.1488 195.751 39.6032C195.584 42.0352 195.437 44.4736 195.309 46.912C195.213 48.9024 195.271 50.8928 195.309 52.8896C193.095 54.144 190.592 53.3248 188.237 53.024C183.335 52.0768 178.451 50.9248 173.472 50.4896C170.375 50.0288 167.296 49.4272 164.192 48.9856C171.021 41.8624 171.399 30.7072 178.867 24.2304Z" fill="var(--fill-0, #214B4D)"/>
<path id="Vector_47" d="M773.568 25.4592C776.576 24.4544 779.712 25.2288 782.848 25.4336C779.712 25.44 776.64 25.4272 773.568 25.4592Z" fill="var(--fill-0, #E59775)"/>
<path id="Vector_48" d="M756.352 26.144C758.528 25.5808 760.768 25.5616 763.008 25.728C760.768 25.856 758.592 26.0736 756.352 26.144Z" fill="var(--fill-0, #E6836C)"/>
<path id="Vector_49" d="M763.008 25.728C766.528 25.6768 770.048 25.5808 773.568 25.4592C776.64 25.4272 779.712 25.44 782.848 25.4336C798.848 25.9008 814.208 30.6944 829.952 33.4848C833.088 34.1184 836.352 34.3744 839.616 34.6048C846.464 35.8848 852.8 38.9632 858.88 42.2656C858.048 42.9504 857.216 43.52 856.192 43.8336C846.784 43.0272 839.104 52.7616 829.504 47.9488C814.784 40.032 805.12 58.6816 790.528 55.0976C778.432 54.4704 791.744 68.6144 797.568 69.6768C816.832 72.6016 825.6 92.9344 844.288 96.7424C838.656 99.6288 829.888 98.656 823.168 97.2544C806.144 90.9952 787.584 90.3424 769.6 91.3152C764.48 91.4688 759.424 91.4368 754.304 91.552C724.224 96.2304 694.08 101.907 663.936 106.611C667.136 100.902 660.672 91.2256 667.264 88.2112C669.888 88.1664 672.64 88.2432 675.328 87.9424C680.512 87.5264 685.888 85.76 689.408 81.7344C691.968 67.424 687.744 52.4928 689.92 38.016C691.648 37.4528 693.312 36.6976 694.976 35.872C701.248 36.0512 707.712 34.3296 713.536 31.8784C727.552 28.2432 741.952 26.9056 756.352 26.144C758.592 26.0736 760.768 25.856 763.008 25.728Z" fill="var(--fill-0, #EC6B65)"/>
<path id="Vector_50" d="M16.9858 27.9808C18.9442 27.3728 21.0114 27.712 23.0018 27.9232C14.4578 27.7888 22.3618 41.4464 20.0322 46.5088C18.0546 40.992 20.6978 34.4448 17.901 29.2992C17.6706 28.9728 17.2162 28.3136 16.9858 27.9808Z" fill="var(--fill-0, #F6EAD2)"/>
<path id="Vector_51" d="M2.44141e-05 58.4768C1.58082 47.0208 4.37762 32.0448 16.9856 27.9808C17.216 28.3136 17.6704 28.9728 17.9008 29.2992C15.6992 30.2208 13.4784 31.1744 11.5456 32.5888C10.7968 33.1392 10.112 33.7664 9.46563 34.432C6.81602 37.8624 4.80642 41.7856 3.64162 45.9648C2.64962 49.3632 2.11842 52.8704 1.86882 56.3968C0.505624 64.7168 2.13762 73.4656 6.22722 80.8192C6.38722 81.1392 6.70083 81.7856 6.86083 82.112C7.39843 83.2064 8.11523 84.2176 8.94083 85.12C11.0272 87.6416 13.44 90.1504 16.7616 90.8864L17.28 91.0656L16.512 92.5248C4.85762 88.0192 1.53602 74.2656 2.44141e-05 63.1808L2.44141e-05 58.4768Z" fill="var(--fill-0, #F8E5C3)"/>
<path id="Vector_52" d="M20.032 46.5088C22.3616 41.4464 14.4576 27.7888 23.0016 27.9232C23.7184 28.0448 24.4096 28.2432 25.088 28.5056C20.6272 32.8 24.256 40.1344 22.6368 45.7024C22.1696 47.1296 21.2288 47.3856 20.032 46.5088Z" fill="var(--fill-0, #FAF4E5)"/>
<path id="Vector_53" d="M25.088 28.5056C31.2704 30.3808 33.0176 37.3696 37.6704 40.9344C37.1456 42.0032 36.832 43.2256 37.6896 44.2304L38.0288 44.6976C38.1824 44.9408 38.4832 45.4336 38.6368 45.6768C38.5856 46.0864 38.4832 46.9056 38.4256 47.3152C38.2976 47.6928 38.0288 48.4416 37.8944 48.8192C37.4272 47.4624 36.9088 46.1312 36.3904 44.7936C36.0448 43.84 35.6992 42.8864 35.2896 41.9584C34.0096 39.3216 32.6528 36.672 30.7456 34.432C22.5344 24.4544 24.4928 39.5456 24.6976 45.2288C23.9104 45.9776 23.1296 46.7328 22.3808 47.5264C22.4448 47.0656 22.5728 46.1568 22.6368 45.7024C24.256 40.1344 20.6272 32.8 25.088 28.5056Z" fill="var(--fill-0, #EEDFC6)"/>
<path id="Vector_54" d="M236.768 54.6176C251.904 45.9584 267.059 37.2864 282.055 28.384C283.143 29.5936 281.946 30.5792 281.12 31.4944C267.104 39.7312 252.935 47.712 238.829 55.7952C251.955 65.5488 266.471 73.8048 279.898 83.3472C280.039 84.1472 280.199 84.9472 280.352 85.7472C265.402 76.6464 251.085 66.4704 236.154 57.3632C224.275 56.3712 212.243 57.2032 200.314 56.9856C200.896 56.2496 201.466 55.5072 202.061 54.7776C213.6 55.2064 225.28 55.4304 236.768 54.6176Z" fill="var(--fill-0, #D66D51)"/>
<path id="Vector_55" d="M11.5456 32.5888C13.4784 31.1744 15.6992 30.2208 17.9008 29.2992C18.7712 35.0272 17.9968 40.8896 18.9504 46.5984C18.8544 47.008 18.6624 47.8336 18.5728 48.2496L18.1888 47.8208C15.4048 42.4 21.7472 26.1312 11.5456 32.5888Z" fill="var(--fill-0, #ECD9B4)"/>
<path id="Vector_56" d="M17.901 29.2992C20.6978 34.4448 18.0546 40.992 20.0322 46.5088L20.3138 47.6608C19.9746 47.392 19.2962 46.8608 18.9506 46.5984C17.997 40.8896 18.7714 35.0272 17.901 29.2992Z" fill="var(--fill-0, #EFE1C5)"/>
<path id="Vector_57" d="M195.878 37.7984C196.051 35.2256 196.256 32.6592 196.512 30.0992C196.256 32.6592 196.077 35.232 195.878 37.7984Z" fill="var(--fill-0, #898B6C)"/>
<path id="Vector_58" d="M11.5458 32.5888C21.7474 26.1312 15.405 42.4 18.189 47.8208C17.6002 48.4864 17.0178 49.152 16.4546 49.8432C14.4578 45.3056 15.3474 34.6688 9.46585 34.432C10.1122 33.7664 10.797 33.1392 11.5458 32.5888Z" fill="var(--fill-0, #EAD3A4)"/>
<path id="Vector_59" d="M24.6976 45.2288C24.4928 39.5456 22.5344 24.4544 30.7456 34.432C27.1488 36.5376 27.1424 41.3696 25.6384 44.8832C25.4656 45.0752 25.12 45.4656 24.9408 45.6576L24.6976 45.2288Z" fill="var(--fill-0, #ECD4AA)"/>
<path id="Vector_60" d="M282.17 31.6032C282.253 47.5456 284.262 66.944 280.23 82.9632C281.446 65.8752 281.37 48.7168 282.17 31.6032Z" fill="var(--fill-0, #E27B66)"/>
<path id="Vector_61" d="M694.976 35.872C700.992 33.952 707.264 32.8576 713.536 31.8784C707.712 34.3296 701.248 36.0512 694.976 35.872Z" fill="var(--fill-0, #E27C65)"/>
<path id="Vector_62" d="M308.326 33.3824C310.33 33.4912 312.282 33.8368 314.304 33.952C312.269 34.4064 310.221 34.304 308.326 33.3824Z" fill="var(--fill-0, #E38169)"/>
<path id="Vector_63" d="M348.109 33.9584C354.272 33.6768 360.435 33.4912 366.598 33.1904C360.755 35.424 354.362 33.6576 348.307 34.5536L348.109 33.9584Z" fill="var(--fill-0, #E27E67)"/>
<path id="Vector_64" d="M829.952 33.4848C833.152 33.6 836.416 33.8816 839.616 34.6048C836.352 34.3744 833.088 34.1184 829.952 33.4848Z" fill="var(--fill-0, #E28369)"/>
<path id="Vector_65" d="M9.46553 34.432C15.3471 34.6688 14.4575 45.3056 16.4543 49.8432L16.4031 50.3424C16.0063 51.5072 15.5903 52.6592 15.2063 53.8304C14.9503 54.5216 14.7455 55.2256 14.5791 55.9488C14.1375 57.9264 14.1119 59.9168 14.5215 61.9072C14.6751 62.8736 14.9759 63.8016 15.2255 64.7424C15.4815 65.8304 15.7375 66.9184 15.9871 68.0064C15.9807 68.256 15.9679 68.7616 15.9551 69.0176C15.9423 69.28 15.9167 69.8176 15.9039 70.0864C15.5263 70.9952 15.1231 71.8976 14.7327 72.8064C11.8079 75.6672 11.9039 84.9984 6.86073 82.112C6.70073 81.7856 6.38713 81.1392 6.22713 80.8192C3.48792 72.96 2.49593 64.6592 1.86873 56.3968C3.46873 53.1648 3.32793 49.4656 3.64153 45.9648C4.80633 41.7856 6.81593 37.8624 9.46553 34.432Z" fill="var(--fill-0, #E6C78C)"/>
<path id="Vector_66" d="M314.893 33.9008C317.85 34.1376 320.807 33.7792 323.776 33.952L323.827 34.5856C320.839 34.5728 317.85 34.272 314.893 33.9008Z" fill="var(--fill-0, #E18066)"/>
<path id="Vector_67" d="M323.776 33.952C331.885 33.856 339.994 33.92 348.109 33.9584L348.307 34.5536C340.147 34.624 331.987 34.5344 323.827 34.5856L323.776 33.952Z" fill="var(--fill-0, #E59572)"/>
<path id="Vector_68" d="M25.6383 44.8832C27.1423 41.3696 27.1487 36.5376 30.7455 34.432C32.6527 36.672 34.0095 39.3216 35.2895 41.9584C33.9775 42.8352 32.6399 43.6608 31.2831 44.4672C29.4015 44.5952 27.5199 44.7168 25.6383 44.8832Z" fill="var(--fill-0, #E5C790)"/>
<path id="Vector_69" d="M117.523 36.32C120.218 34.1504 125.082 35.232 126.067 38.656C126.784 41.1776 122.688 44.5952 126.138 46.048C127.443 52.3904 117.421 53.5296 113.786 49.9648C114.176 47.2896 115.808 44.9152 118.547 44.2752C123.61 43.456 121.357 37.2672 117.523 36.32Z" fill="var(--fill-0, #33514D)"/>
<path id="Vector_70" d="M118.547 44.2752C116.333 42.144 116.077 38.9568 117.523 36.32C121.357 37.2672 123.61 43.456 118.547 44.2752Z" fill="var(--fill-0, #DDD8BE)"/>
<path id="Vector_71" d="M195.309 46.912C195.437 44.4736 195.584 42.0352 195.751 39.6032C195.597 42.0352 195.45 44.4736 195.309 46.912Z" fill="var(--fill-0, #838C71)"/>
<path id="Vector_72" d="M31.2832 44.4672C32.64 43.6608 33.9776 42.8352 35.2896 41.9584C35.6992 42.8864 36.0448 43.84 36.3904 44.7936C34.688 44.6656 32.992 44.5376 31.2832 44.4672Z" fill="var(--fill-0, #5F5F51)"/>
<path id="Vector_73" d="M858.88 42.2656C859.84 42.6176 861.056 42.7904 861.44 43.9296V44.5248C859.648 44.2688 857.92 43.9936 856.192 43.8336C857.216 43.52 858.048 42.9504 858.88 42.2656Z" fill="var(--fill-0, #DD8D6A)"/>
<path id="Vector_74" d="M25.6386 44.8832C27.5202 44.7168 29.4018 44.5952 31.2834 44.4672C32.9922 44.5376 34.6882 44.6656 36.3906 44.7936C36.909 46.1312 37.4274 47.4624 37.8946 48.8192C38.4898 54.5088 39.4114 60.2432 38.6498 65.9648C38.5922 65.5168 38.4834 64.6208 38.4258 64.1728C38.8482 59.4176 32.461 61.9648 29.3762 61.8944C29.2994 59.2192 29.613 56.4992 29.0818 53.856C28.1602 51.5008 27.4882 48.1728 24.4354 48.0384C24.6146 47.2448 24.781 46.4512 24.941 45.6576C25.1202 45.4656 25.4658 45.0752 25.6386 44.8832Z" fill="var(--fill-0, #CD7879)"/>
<path id="Vector_75" d="M37.6897 44.2304C50.9889 44.2176 64.2945 43.9872 77.5937 44.2496C77.3633 44.4352 76.9089 44.8128 76.6785 44.9984C67.5329 44.7872 58.3873 44.704 49.2353 44.8C45.5041 44.704 41.7601 44.8768 38.0289 44.6976L37.6897 44.2304Z" fill="var(--fill-0, #5A5656)"/>
<path id="Vector_76" d="M77.5937 44.2496C77.8817 44.2496 78.4449 44.2624 78.7329 44.2688C78.9697 44.416 79.4497 44.7168 79.6865 44.8704C66.8673 48.4992 52.6529 43.9232 39.6033 46.784C39.7633 49.5872 40.2241 52.3712 40.3137 55.1808C39.8721 52.5184 39.1937 49.9072 38.4257 47.3152C38.4833 46.9056 38.5857 46.0864 38.6369 45.6768C42.1505 45.6192 45.6641 45.4976 49.1777 45.44C58.2529 44.8448 67.8529 46.4896 76.6785 44.9984C76.9089 44.8128 77.3633 44.4352 77.5937 44.2496Z" fill="var(--fill-0, #C67D7F)"/>
<path id="Vector_77" d="M38.0288 44.6976C41.76 44.8768 45.504 44.704 49.2352 44.8L49.1776 45.44C45.664 45.4976 42.1504 45.6192 38.6368 45.6768C38.4832 45.4336 38.1824 44.9408 38.0288 44.6976Z" fill="var(--fill-0, #A17B7B)"/>
<path id="Vector_78" d="M49.2352 44.8C58.3872 44.704 67.5328 44.7872 76.6784 44.9984C67.8528 46.4896 58.2528 44.8448 49.1776 45.44L49.2352 44.8Z" fill="var(--fill-0, #B47E80)"/>
<path id="Vector_79" d="M79.6866 44.8704C90.637 47.3344 107.667 38.784 113.786 49.9648C117.421 53.5296 127.443 52.3904 126.138 46.048C138.151 44.2944 151.187 49.504 163.667 49.0112C166.778 50.4192 170.131 50.4128 173.472 50.4896C178.451 50.9248 183.335 52.0768 188.237 53.024C166.733 55.2576 144.48 53.2672 123.373 57.5104C110.362 53.9712 96.8002 52.8576 83.3666 52.4992C77.5298 52.0128 73.8754 57.4464 69.2546 60.096C59.6354 59.0208 49.9778 60.7232 40.3394 60.8192C40.3266 58.9376 40.397 57.0624 40.3138 55.1808C40.2242 52.3712 39.7634 49.5872 39.6034 46.784C52.653 43.9232 66.8674 48.4992 79.6866 44.8704Z" fill="var(--fill-0, #D27778)"/>
<path id="Vector_80" d="M20.0321 46.5088C21.2289 47.3856 22.1697 47.1296 22.6369 45.7024C22.5729 46.1568 22.4449 47.0656 22.3809 47.5264C22.3041 49.5744 22.4577 51.6352 22.4897 53.696C22.0289 55.0464 21.4785 56.3776 21.1137 57.76C20.8641 54.3936 20.8833 50.9952 20.3137 47.6608L20.0321 46.5088Z" fill="var(--fill-0, #E2ECED)"/>
<path id="Vector_81" d="M24.6977 45.2288L24.9409 45.6576C24.7809 46.4512 24.6145 47.2448 24.4353 48.0384C24.0001 49.9968 23.3281 51.872 22.4897 53.696C22.4577 51.6352 22.3041 49.5744 22.3809 47.5264C23.1297 46.7328 23.9105 45.9776 24.6977 45.2288Z" fill="var(--fill-0, #A6AEB2)"/>
<path id="Vector_82" d="M1.86873 56.3968C2.11833 52.8704 2.64953 49.3632 3.64153 45.9648C3.32793 49.4656 3.46873 53.1648 1.86873 56.3968Z" fill="var(--fill-0, #E5CD9C)"/>
<path id="Vector_83" d="M18.9505 46.5984C19.2961 46.8608 19.9745 47.392 20.3137 47.6608C20.8833 50.9952 20.8641 54.3936 21.1137 57.76C20.8897 61.312 18.7841 58.5216 19.0017 56.3776C18.8417 53.6832 19.4369 50.8608 18.5729 48.2496C18.6625 47.8336 18.8545 47.008 18.9505 46.5984Z" fill="var(--fill-0, #B4C5C5)"/>
<path id="Vector_84" d="M790.528 55.0976C805.12 58.6816 814.784 40.032 829.504 47.9488C813.568 43.9744 802.368 60.7808 786.048 56.8896C788.48 63.1744 795.84 68.6912 803.136 70.464C820.352 75.0336 829.44 93.5616 847.616 96.2688C847.68 97.1072 847.68 97.9584 847.424 98.7712C829.312 103.36 812.864 93.1264 795.008 92.704C791.936 92.4672 788.864 92.3136 785.792 92.224C780.736 92.1728 775.68 92.1664 770.624 92.0576L769.6 91.3152C787.584 90.3424 806.144 90.9952 823.168 97.2544C829.888 98.656 838.656 99.6288 844.288 96.7424C825.6 92.9344 816.832 72.6016 797.568 69.6768C791.744 68.6144 778.432 54.4704 790.528 55.0976Z" fill="var(--fill-0, #E27764)"/>
<path id="Vector_85" d="M38.4257 47.3152C39.1937 49.9072 39.8721 52.5184 40.3137 55.1808C40.3969 57.0624 40.3265 58.9376 40.3393 60.8192V62.6944C40.3393 63.0016 40.3329 63.616 40.3329 63.9232C40.0897 69.472 37.3953 74.5664 37.1137 80.0832C36.1729 81.0432 35.2321 82.0032 34.3553 83.0208C34.2081 82.7136 33.9201 82.0928 33.7729 81.7792C34.2337 80.7872 34.6817 79.7888 35.1361 78.7904C37.1521 74.8096 38.0097 70.3488 38.6497 65.9648C39.4113 60.2432 38.4897 54.5088 37.8945 48.8192C38.0289 48.4416 38.2977 47.6928 38.4257 47.3152Z" fill="var(--fill-0, #F3CAC4)"/>
<path id="Vector_86" d="M18.1889 47.8208L18.5729 48.2496C19.4369 50.8608 18.8417 53.6832 19.0017 56.3776C17.9201 54.5152 19.5457 49.5104 16.4033 50.3424L16.4545 49.8432C17.0177 49.152 17.6001 48.4864 18.1889 47.8208Z" fill="var(--fill-0, #859996)"/>
<path id="Vector_87" d="M24.4354 48.0384C27.4882 48.1728 28.1602 51.5008 29.0818 53.856C28.8514 57.8944 28.7874 61.9584 28.109 65.952C27.1874 67.8336 25.9714 69.5488 24.9154 71.36C24.429 70.1696 23.725 69.0944 23.2194 67.9168C22.6818 66.2976 21.9842 64.7424 21.2034 63.232C20.8706 60.0832 19.6674 60.6528 19.085 63.3856C18.4258 65.1456 17.421 66.7712 15.9874 68.0064C15.7378 66.9184 15.4818 65.8304 15.2258 64.7424C15.1682 61.1008 15.1874 57.4656 15.2066 53.8304C15.5906 52.6592 16.0066 51.5072 16.4034 50.3424C19.5458 49.5104 17.9202 54.5152 19.0018 56.3776C18.7842 58.5216 20.8898 61.312 21.1138 57.76C21.4786 56.3776 22.029 55.0464 22.4898 53.696C23.3282 51.872 24.0002 49.9968 24.4354 48.0384Z" fill="var(--fill-0, #254A4D)"/>
<path id="Vector_88" d="M163.667 49.0112L164.192 48.9856C167.296 49.4272 170.375 50.0288 173.472 50.4896C170.131 50.4128 166.778 50.4192 163.667 49.0112Z" fill="var(--fill-0, #826B69)"/>
<path id="Vector_89" d="M69.2544 60.096C73.8752 57.4464 77.5296 52.0128 83.3664 52.4992C96.8 52.8576 110.362 53.9712 123.373 57.5104C123.898 58.4 124.41 59.3024 124.909 60.2112C116.422 66.5856 106.451 70.8544 96.6464 74.8672C93.696 75.4496 90.8288 76.4352 88.3136 78.112C86.6176 78.7392 84.9088 79.3536 83.1936 79.9232C80.48 80.5504 77.8944 81.5936 75.648 83.2576C72.832 84.1216 70.0992 85.2992 67.2 85.8496C63.7888 86.2208 61.2032 83.8336 58.3424 82.4448C57.3824 81.9456 56.448 81.3568 55.3984 81.0624C53.44 80.384 51.5008 80.4352 49.5808 81.2032C49.2032 81.3312 48.448 81.5936 48.0704 81.7216C47.7248 81.888 47.0336 82.2272 46.688 82.3936C44.4864 83.6096 42.4832 85.1392 40.3968 86.5344C37.8816 86.5024 35.3664 86.496 32.8512 86.464C33.3568 85.3184 33.8624 84.1728 34.3552 83.0208C35.232 82.0032 36.1728 81.0432 37.1136 80.0832C47.104 76.2112 56.2432 70.1952 64.5888 63.5456C65.3056 63.1168 65.984 62.624 66.656 62.112C67.552 61.4784 68.4416 60.8384 69.2544 60.096Z" fill="var(--fill-0, #1D474B)"/>
<path id="Vector_90" d="M123.373 57.5104C144.48 53.2672 166.733 55.2576 188.237 53.024C190.592 53.3248 193.095 54.144 195.309 52.8896C195.661 53.1136 196.365 53.5616 196.717 53.7792C173.402 57.3376 147.539 54.2784 125.639 59.456C125.453 59.648 125.088 60.0256 124.909 60.2112C124.41 59.3024 123.898 58.4 123.373 57.5104Z" fill="var(--fill-0, #CB6A69)"/>
<path id="Vector_91" d="M14.5793 55.9488C14.7457 55.2256 14.9505 54.5216 15.2065 53.8304C15.1873 57.4656 15.1681 61.1008 15.2257 64.7424C14.9761 63.8016 14.6753 62.8736 14.5217 61.9072C14.4769 59.9168 14.4385 57.9328 14.5793 55.9488Z" fill="var(--fill-0, #6E795D)"/>
<path id="Vector_92" d="M29.0817 53.856C29.6129 56.4992 29.2993 59.2192 29.3761 61.8944C29.3633 62.1824 29.3377 62.752 29.3249 63.04C28.9537 64.0192 28.5569 64.9984 28.1089 65.952C28.7873 61.9584 28.8513 57.8944 29.0817 53.856Z" fill="var(--fill-0, #685255)"/>
<path id="Vector_93" d="M125.639 59.456C147.539 54.2784 173.402 57.3376 196.717 53.7792C197.651 53.9648 199.52 54.3232 200.455 54.5024C175.789 58.08 150.56 57.9008 125.639 59.456Z" fill="var(--fill-0, #C65F5A)"/>
<path id="Vector_94" d="M125.638 59.456C150.56 57.9008 175.789 58.08 200.454 54.5024C200.851 54.5728 201.658 54.7072 202.061 54.7776C201.466 55.5072 200.896 56.2496 200.314 56.9856C181.926 62.784 163.309 67.7952 144.518 72.096C142.701 72.1984 141.933 73.7792 141.267 75.2384C139.808 75.5968 138.445 76.256 137.594 77.536C136.416 75.6672 134.016 75.0208 131.93 75.0464C114.035 78.5088 96.0512 82.1952 77.8112 83.1808C79.552 82.0096 81.3184 80.8704 83.1936 79.9232C84.9088 79.3536 86.6176 78.7392 88.3136 78.112C91.2576 77.5104 94.112 76.512 96.6464 74.8672C106.451 70.8544 116.422 66.5856 124.909 60.2112C125.088 60.0256 125.453 59.648 125.638 59.456Z" fill="var(--fill-0, #BE574D)"/>
<path id="Vector_95" d="M14.5216 61.9072C14.112 59.9168 14.1376 57.9264 14.5792 55.9488C14.4384 57.9328 14.4768 59.9168 14.5216 61.9072Z" fill="var(--fill-0, #B6B288)"/>
<path id="Vector_96" d="M6.22716 80.8192C2.13756 73.4656 0.50556 64.7168 1.86876 56.3968C2.49596 64.6592 3.48796 72.96 6.22716 80.8192Z" fill="var(--fill-0, #E6CE9F)"/>
<path id="Vector_97" d="M593.127 59.552C600.064 54.7456 611.072 58.4576 619.52 56.8576C621.562 57.2992 623.527 57.824 625.6 58.2656C625.28 58.272 624.653 58.2912 624.339 58.2976C620.224 58.208 616.109 58.2656 612.013 58.3616C609.549 58.464 607.098 58.592 604.666 58.752C600.813 59.0208 596.979 59.4688 593.127 59.552Z" fill="var(--fill-0, #E37563)"/>
<path id="Vector_98" d="M604.666 58.752C607.098 58.592 609.549 58.464 612.013 58.3616C609.549 58.4768 607.104 58.6048 604.666 58.752Z" fill="var(--fill-0, #E89173)"/>
<path id="Vector_99" d="M624.339 58.2976C624.653 58.2912 625.28 58.272 625.6 58.2656C626.425 58.2976 627.264 58.2848 628.109 58.2272C629.286 58.2272 630.47 58.1888 631.667 58.1824L632.16 58.4064C632.358 58.5984 632.761 58.9888 632.96 59.1872C630.086 58.8416 627.194 58.5472 624.339 58.2976Z" fill="var(--fill-0, #E88B6E)"/>
<path id="Vector_100" d="M632.96 59.1872L633.472 58.9184C633.511 62.304 633.645 65.696 633.607 69.0816L632.967 69.0368C632.96 65.7536 632.928 62.464 632.96 59.1872Z" fill="var(--fill-0, #B55135)"/>
<path id="Vector_101" d="M633.472 58.9184L634.048 58.9504C636.634 59.1616 634.842 61.5232 634.791 63.1104C634.291 72.16 634.778 81.216 634.355 90.272C634.074 87.5136 633.805 84.7616 633.555 82.0096C633.562 77.696 633.651 73.3888 633.607 69.0816C633.645 65.696 633.511 62.304 633.472 58.9184Z" fill="var(--fill-0, #AF2016)"/>
<path id="Vector_102" d="M634.048 58.9504C635.066 59.008 636.083 59.0656 637.12 59.1232C640.064 59.3408 643.008 59.8208 646.016 60.064C644.992 68.8 644.992 77.6064 645.184 86.3872C641.536 87.6096 637.952 88.9408 634.355 90.272C634.778 81.216 634.291 72.16 634.79 63.1104C634.842 61.5232 636.634 59.1616 634.048 58.9504Z" fill="var(--fill-0, #B51C17)"/>
<path id="Vector_103" d="M40.3393 60.8192C49.9777 60.7232 59.6353 59.0208 69.2545 60.096C68.4417 60.8384 67.5521 61.4784 66.6561 62.112C57.8945 60.928 49.0945 62.1248 40.3393 62.6944V60.8192Z" fill="var(--fill-0, #CA6A69)"/>
<path id="Vector_104" d="M646.016 60.064C646.784 60.0256 647.552 60.0128 648.32 60.0256C648.064 68.4928 649.792 78.9824 646.272 86.2912C646.016 86.3168 645.44 86.3616 645.184 86.3872C644.992 77.6064 644.992 68.8 646.016 60.064Z" fill="var(--fill-0, #C21E18)"/>
<path id="Vector_105" d="M648.32 60.0256C651.008 60.2304 653.632 60.9152 656.32 61.2416C656.064 61.28 655.424 61.3504 655.168 61.3888C649.152 65.5424 656.128 78.8544 652.736 85.6512C650.56 85.8624 648.448 86.1248 646.272 86.2912C649.792 78.9824 648.064 68.4928 648.32 60.0256Z" fill="var(--fill-0, #CF211B)"/>
<path id="Vector_106" d="M19.0849 63.3856C19.6673 60.6528 20.8705 60.0832 21.2033 63.232C21.2033 64.8768 21.2033 66.5216 21.2097 68.1728C21.0561 76.4608 22.9825 84.8256 22.2977 93.0432C21.2993 93.1392 20.3009 93.12 19.3089 93.0432C18.6177 85.3824 18.7329 77.5424 19.3793 69.8688C19.3217 67.7056 19.1617 65.5488 19.0849 63.3856Z" fill="var(--fill-0, #F5F3EA)"/>
<path id="Vector_107" d="M29.3761 61.8944C32.4609 61.9648 38.8481 59.4176 38.4257 64.1728C35.4241 63.7952 32.0449 64.7168 29.3249 63.04C29.3377 62.752 29.3633 62.1824 29.3761 61.8944Z" fill="var(--fill-0, #C76662)"/>
<path id="Vector_108" d="M40.3394 62.6944C49.0946 62.1248 57.8946 60.928 66.6562 62.112C65.9842 62.624 65.3058 63.1168 64.589 63.5456C56.493 63.0848 48.4162 64.1536 40.333 63.9232C40.333 63.616 40.3394 63.0016 40.3394 62.6944Z" fill="var(--fill-0, #C35E5A)"/>
<path id="Vector_109" d="M652.736 85.6512C656.128 78.8544 649.152 65.5424 655.168 61.3888C654.144 69.4976 655.616 77.8112 653.888 85.8304C653.632 85.7856 653.056 85.696 652.736 85.6512Z" fill="var(--fill-0, #C71F18)"/>
<path id="Vector_110" d="M655.168 61.3888C655.424 61.3504 656.064 61.28 656.32 61.2416C657.088 61.3184 657.792 61.4144 658.56 61.5168C658.816 61.568 659.392 61.664 659.648 61.7152L660.032 62.1376C653.376 63.8464 656.128 80.8768 657.28 86.4704C656.896 86.4 656.064 86.2464 655.616 86.176C655.232 86.0864 654.336 85.92 653.888 85.8304C655.616 77.8112 654.144 69.4976 655.168 61.3888Z" fill="var(--fill-0, #BF1E18)"/>
<path id="Vector_111" d="M657.28 86.4704C656.128 80.8768 653.376 63.8464 660.032 62.1376C661.888 62.272 663.808 62.4896 665.664 62.8416C666.88 63.0912 668.096 63.3536 669.312 63.6416C670.848 64.0192 672.384 64.4288 673.92 64.8256C675.392 65.2288 676.928 65.536 678.4 65.9456C684.16 69.2608 689.088 74.7968 689.408 81.7344C685.888 85.76 680.512 87.5264 675.328 87.9424C672.448 87.936 669.632 87.8912 666.752 87.8464C665.6 87.6736 664.384 87.5072 663.232 87.3664C662.272 87.2256 660.352 86.9568 659.392 86.816C658.688 86.7136 657.984 86.5984 657.28 86.4704Z" fill="var(--fill-0, #B51D18)"/>
<path id="Vector_112" d="M15.9871 68.0064C17.4207 66.7712 18.4255 65.1456 19.0847 63.3856C19.1615 65.5488 19.3215 67.7056 19.3791 69.8688C19.0015 70.5728 18.6303 71.2768 18.2591 71.9808C18.0351 71.616 17.5999 70.8864 17.3759 70.5216C16.9727 69.9584 16.4991 69.4528 15.9551 69.0176C15.9679 68.7616 15.9807 68.256 15.9871 68.0064Z" fill="var(--fill-0, #AAB9B3)"/>
<path id="Vector_113" d="M21.2033 63.232C21.9841 64.7424 22.6817 66.2976 23.2193 67.9168C23.1745 68.8384 23.0721 70.6816 23.0273 71.6032C22.7393 71.8912 22.1633 72.4736 21.8753 72.7616C21.6065 71.2384 21.3889 69.7088 21.2097 68.1728C21.2033 66.5216 21.2033 64.8768 21.2033 63.232Z" fill="var(--fill-0, #AFC1C4)"/>
<path id="Vector_114" d="M28.1089 65.952C28.5569 64.9984 28.9537 64.0192 29.3249 63.04C32.0449 64.7168 35.4241 63.7952 38.4257 64.1728C38.4833 64.6208 38.5921 65.5168 38.6497 65.9648C38.0097 70.3488 37.1521 74.8096 35.1361 78.7904C32.3393 78.0032 29.5745 77.12 26.8097 76.2496C26.1185 74.816 25.5553 73.3248 25.0241 71.8272L24.9153 71.36C25.9713 69.5488 27.1873 67.8336 28.1089 65.952Z" fill="var(--fill-0, #BC574F)"/>
<path id="Vector_115" d="M40.3328 63.9232C48.416 64.1536 56.4928 63.0848 64.5888 63.5456C56.2432 70.1952 47.104 76.2112 37.1136 80.0832C37.3952 74.5664 40.0896 69.472 40.3328 63.9232Z" fill="var(--fill-0, #B95650)"/>
<path id="Vector_116" d="M23.2192 67.9168C23.7248 69.0944 24.4288 70.1696 24.9152 71.36L25.024 71.8272C24.6528 71.808 23.904 71.776 23.5264 71.7632L23.0272 71.6032C23.072 70.6816 23.1744 68.8384 23.2192 67.9168Z" fill="var(--fill-0, #808B8F)"/>
<path id="Vector_117" d="M21.2098 68.1728C21.389 69.7088 21.6066 71.2384 21.8754 72.7616C22.1826 73.8496 22.6434 74.8928 23.0786 75.936C23.8338 81.2736 20.9602 87.9296 24.9858 92.384C24.109 92.672 23.2002 92.8704 22.2978 93.0432C22.9826 84.8256 21.0562 76.4608 21.2098 68.1728Z" fill="var(--fill-0, #F1E7D5)"/>
<path id="Vector_118" d="M15.9552 69.0176C16.4992 69.4528 16.9728 69.9584 17.376 70.5216C15.9232 77.2736 17.6512 84.1152 16.7616 90.8864C13.44 90.1504 11.0272 87.6416 8.94084 85.12L9.39524 85.2096C11.5776 86.0224 13.4528 89.216 15.9104 88.4736C15.776 82.3424 15.5456 76.2112 15.904 70.0864C15.9168 69.8176 15.9424 69.28 15.9552 69.0176Z" fill="var(--fill-0, #EBD7B0)"/>
<path id="Vector_119" d="M632.966 69.0368L633.606 69.0816C633.651 73.3888 633.562 77.696 633.555 82.0096L632.928 81.8624C632.915 81.536 632.896 80.896 632.883 80.5696C632.838 77.9904 632.819 75.4112 632.826 72.8384C632.864 71.5712 632.909 70.2976 632.966 69.0368Z" fill="var(--fill-0, #AE4127)"/>
<path id="Vector_120" d="M14.7328 72.8064C15.1232 71.8976 15.5264 70.9952 15.904 70.0864C15.5456 76.2112 15.776 82.3424 15.9104 88.4736C13.4528 89.216 11.5776 86.0224 9.39524 85.2096C11.168 81.1456 14.8032 77.4784 14.7328 72.8064Z" fill="var(--fill-0, #ECD3A5)"/>
<path id="Vector_121" d="M16.7616 90.8864C17.6512 84.1152 15.9232 77.2736 17.376 70.5216C17.6 70.8864 18.0352 71.616 18.2592 71.9808C17.1968 78.2528 19.168 84.9664 17.28 91.0656L16.7616 90.8864Z" fill="var(--fill-0, #EFDFBE)"/>
<path id="Vector_122" d="M19.3792 69.8688C18.7328 77.5424 18.6176 85.3824 19.3088 93.0432C18.3616 92.9408 17.4272 92.7744 16.512 92.5248L17.28 91.0656C19.168 84.9664 17.1968 78.2528 18.2592 71.9808C18.6304 71.2768 19.0016 70.5728 19.3792 69.8688Z" fill="var(--fill-0, #F4EAD5)"/>
<path id="Vector_123" d="M23.5264 71.7632C23.904 71.776 24.6528 71.808 25.024 71.8272C25.5552 73.3248 26.1184 74.816 26.8096 76.2496L26.3168 76.1856C25.6192 76.0896 24.928 76.0064 24.2304 75.9424C23.9232 74.56 23.9168 73.1264 23.5264 71.7632Z" fill="var(--fill-0, #CC877D)"/>
<path id="Vector_124" d="M21.8753 72.7616C22.1633 72.4736 22.7393 71.8912 23.0273 71.6032L23.5265 71.7632C23.9169 73.1264 23.9233 74.56 24.2305 75.9424C23.9425 75.9424 23.3665 75.936 23.0785 75.936C22.6433 74.8928 22.1825 73.8496 21.8753 72.7616Z" fill="var(--fill-0, #D0AFAB)"/>
<path id="Vector_125" d="M6.86091 82.112C11.9041 84.9984 11.8081 75.6672 14.7329 72.8064C14.8033 77.4784 11.1681 81.1456 9.39531 85.2096L8.94091 85.12C8.11531 84.2176 7.39851 83.2064 6.86091 82.112Z" fill="var(--fill-0, #E8CD9B)"/>
<path id="Vector_126" d="M632.294 80.8128C632.403 78.1504 632.602 75.4944 632.826 72.8384C632.819 75.4112 632.838 77.9904 632.883 80.5696L632.294 80.8128Z" fill="var(--fill-0, #E28F6B)"/>
<path id="Vector_127" d="M88.3137 78.112C90.8289 76.4352 93.6961 75.4496 96.6465 74.8672C94.1121 76.512 91.2577 77.5104 88.3137 78.112Z" fill="var(--fill-0, #6F4E4D)"/>
<path id="Vector_128" d="M23.0784 75.936C23.3664 75.936 23.9424 75.9424 24.2304 75.9424C24.2624 81.1776 22.112 96.4416 29.9264 86.4768C30.2912 86.3808 31.008 86.1824 31.3664 86.0864C31.6096 86.1824 32.0896 86.368 32.3264 86.464C30.0032 88.576 27.8272 90.9632 24.9856 92.384C20.96 87.9296 23.8336 81.2736 23.0784 75.936Z" fill="var(--fill-0, #F2E2C2)"/>
<path id="Vector_129" d="M24.2304 75.9424C24.928 76.0064 25.6192 76.0896 26.3168 76.1856C27.6736 78.4832 28.9728 80.8256 30.1248 83.2448C26.2976 83.8016 25.3248 86.8416 29.9264 86.4768C22.112 96.4416 24.2624 81.1776 24.2304 75.9424Z" fill="var(--fill-0, #E7D2A9)"/>
<path id="Vector_130" d="M137.594 77.536C138.445 76.256 139.808 75.5968 141.267 75.2384C148.525 78.2336 137.504 85.2544 137.594 77.536Z" fill="var(--fill-0, #4A5A4E)"/>
<path id="Vector_131" d="M26.3168 76.1856L26.8096 76.2496C29.5744 77.12 32.3392 78.0032 35.136 78.7904C34.6816 79.7888 34.2336 80.7872 33.7728 81.7792L33.3952 82.0736C32.3136 82.4768 31.2192 82.8544 30.1248 83.2448C28.9728 80.8256 27.6736 78.4832 26.3168 76.1856Z" fill="var(--fill-0, #E4BF8F)"/>
<path id="Vector_132" d="M75.6481 83.2576C77.8945 81.5936 80.4801 80.5504 83.1937 79.9232C81.3185 80.8704 79.5521 82.0096 77.8113 83.1808C77.0945 83.2192 76.3713 83.2448 75.6481 83.2576Z" fill="var(--fill-0, #7B564F)"/>
<path id="Vector_133" d="M49.5809 81.2032C51.5009 80.4352 53.4401 80.384 55.3985 81.0624C53.4529 81.056 51.5201 81.0432 49.5809 81.2032Z" fill="var(--fill-0, #554543)"/>
<path id="Vector_134" d="M632.294 80.8128L632.883 80.5696C632.896 80.896 632.915 81.536 632.928 81.8624C632.896 84.864 632.71 87.872 632.787 90.88C633.357 94.112 634.106 97.3184 634.784 100.531C631.181 94.6752 632.557 87.2832 632.294 80.8128Z" fill="var(--fill-0, #D67959)"/>
<path id="Vector_135" d="M48.0703 81.7216C48.4479 81.5936 49.2031 81.3312 49.5807 81.2032C51.5199 81.0432 53.4527 81.056 55.3983 81.0624C56.4479 81.3568 57.3823 81.9456 58.3423 82.4448C54.9247 82.1184 51.4943 81.8944 48.0703 81.7216Z" fill="var(--fill-0, #8B5855)"/>
<path id="Vector_136" d="M30.1248 83.2448C31.2192 82.8544 32.3136 82.4768 33.3952 82.0736C32.6656 83.3856 32 84.7296 31.3664 86.0864C30.9376 85.1456 30.5216 84.1984 30.1248 83.2448Z" fill="var(--fill-0, #41594E)"/>
<path id="Vector_137" d="M33.3952 82.0736L33.7728 81.7792C33.92 82.0928 34.208 82.7136 34.3552 83.0208C33.8624 84.1728 33.3568 85.3184 32.8512 86.464H32.3264C32.0896 86.368 31.6096 86.1824 31.3664 86.0864C32 84.7296 32.6656 83.3856 33.3952 82.0736Z" fill="var(--fill-0, #AEC4BD)"/>
<path id="Vector_138" d="M46.6881 82.3936C47.0337 82.2272 47.7249 81.888 48.0705 81.7216C51.4945 81.8944 54.9249 82.1184 58.3425 82.4448C61.2033 83.8336 63.7889 86.2208 67.2001 85.8496C59.3409 84.6656 71.9553 97.2096 62.8993 94.7968C58.6113 92.8128 59.9105 97.9264 59.0529 99.808C59.2321 98.1312 58.9121 96.6784 58.0929 95.4496C53.3249 94.0544 45.6321 92.192 42.1889 96.2624C42.1569 97.2608 42.0865 99.2576 42.0545 100.25C40.2817 95.4688 36.4353 92 40.7617 86.912C42.9889 85.7664 45.0433 84.2944 46.6881 82.3936Z" fill="var(--fill-0, #B9584F)"/>
<path id="Vector_139" d="M632.928 81.8624L633.555 82.0096C633.805 84.7616 634.074 87.5136 634.355 90.272C633.965 90.4192 633.184 90.7264 632.787 90.88C632.71 87.872 632.896 84.864 632.928 81.8624Z" fill="var(--fill-0, #AA2F1C)"/>
<path id="Vector_140" d="M40.3969 86.5344C42.4833 85.1392 44.4865 83.6096 46.6881 82.3936C45.0433 84.2944 42.9889 85.7664 40.7617 86.912L40.3969 86.5344Z" fill="var(--fill-0, #995E5A)"/>
<path id="Vector_141" d="M29.9263 86.4768C25.3247 86.8416 26.2975 83.8016 30.1247 83.2448C30.5215 84.1984 30.9375 85.1456 31.3663 86.0864C31.0079 86.1824 30.2911 86.3808 29.9263 86.4768Z" fill="var(--fill-0, #68786C)"/>
<path id="Vector_142" d="M345.504 92.8064C372.032 90.368 398.752 86.9376 425.222 84.5696C398.848 88.6976 372.186 91.9296 345.504 92.8064Z" fill="var(--fill-0, #E27C67)"/>
<path id="Vector_143" d="M280.352 85.7472C299.066 91.7376 318.726 93.0624 338.208 92.8384L337.773 93.2608C318.675 93.4464 297.99 94.1248 280.352 85.7472Z" fill="var(--fill-0, #E47A65)"/>
<path id="Vector_144" d="M646.272 86.2912C648.448 86.1248 650.56 85.8624 652.736 85.6512C653.056 85.696 653.632 85.7856 653.888 85.8304C654.336 85.92 655.232 86.0864 655.616 86.176C642.304 87.1232 660.352 109.152 644.416 107.718C640.256 106.963 636.371 104.698 634.784 100.531C634.106 97.3184 633.357 94.112 632.787 90.88C633.184 90.7264 633.965 90.4192 634.355 90.272C637.952 88.9408 641.536 87.6096 645.184 86.3872C645.44 86.3616 646.016 86.3168 646.272 86.2912Z" fill="var(--fill-0, #E7514A)"/>
<path id="Vector_145" d="M644.416 107.718C660.352 109.152 642.304 87.1232 655.616 86.176C656.064 86.2464 656.896 86.4 657.28 86.4704C657.984 86.5984 658.688 86.7136 659.392 86.816C651.392 90.8224 662.976 105.498 652.928 108.442L652.48 108.8H649.152C647.552 108.474 645.952 108.083 644.416 107.718Z" fill="var(--fill-0, #E95B54)"/>
<path id="Vector_146" d="M652.928 108.442C662.976 105.498 651.392 90.8224 659.392 86.816C660.352 86.9568 662.272 87.2256 663.232 87.3664C660.032 88.096 660.416 91.328 661.312 93.7024C662.656 97.8816 659.52 103.469 663.04 106.874C662.016 107.149 660.992 107.379 659.968 107.584C657.664 108.058 655.232 108.16 652.928 108.442Z" fill="var(--fill-0, #E9625B)"/>
<path id="Vector_147" d="M661.312 93.7024C660.416 91.328 660.032 88.096 663.232 87.3664C664.384 87.5072 665.6 87.6736 666.752 87.8464L667.264 88.2112C660.672 91.2256 667.136 100.902 663.936 106.611C663.744 106.675 663.232 106.803 663.04 106.874C659.52 103.469 662.656 97.8816 661.312 93.7024Z" fill="var(--fill-0, #EB6660)"/>
<path id="Vector_148" d="M666.752 87.8464C669.632 87.8912 672.448 87.936 675.328 87.9424C672.64 88.2432 669.888 88.1664 667.264 88.2112L666.752 87.8464Z" fill="var(--fill-0, #DB4F48)"/>
<path id="Vector_149" d="M663.936 106.611C694.08 101.907 724.224 96.2304 754.304 91.552L754.688 92.0512C723.2 97.7344 691.84 104.422 659.968 107.584C660.992 107.379 662.016 107.149 663.04 106.874C663.232 106.803 663.744 106.675 663.936 106.611Z" fill="var(--fill-0, #E27A65)"/>
<path id="Vector_150" d="M754.304 91.552C759.424 91.4368 764.48 91.4688 769.6 91.3152L770.624 92.0576C765.312 92.192 760 92.1792 754.688 92.0512L754.304 91.552Z" fill="var(--fill-0, #E78E71)"/>
<path id="Vector_151" d="M785.792 92.224C788.864 92.3136 791.936 92.4672 795.008 92.704C791.936 92.6144 788.864 92.4416 785.792 92.224Z" fill="var(--fill-0, #E79372)"/>
<path id="Vector_152" d="M338.208 92.8384C340.442 92.736 342.656 93.0112 344.915 92.7872C342.528 93.0176 340.154 93.1776 337.773 93.2608L338.208 92.8384Z" fill="var(--fill-0, #E99072)"/>
<path id="Vector_153" d="M42.189 96.2624C45.6322 92.192 53.325 94.0544 58.093 95.4496C57.0946 95.3472 55.085 95.136 54.0866 95.0336C51.789 94.9248 49.485 94.8736 47.1938 95.072C45.5042 95.3728 43.821 95.7312 42.189 96.2624Z" fill="var(--fill-0, #5E4F4E)"/>
<path id="Vector_154" d="M47.1936 95.072C49.4848 94.8736 51.7888 94.9248 54.0864 95.0336C59.7056 103.622 41.2416 103.642 47.1936 95.072Z" fill="var(--fill-0, #225D63)"/>
<path id="Vector_155" d="M42.1889 96.2624C43.8209 95.7312 45.5041 95.3728 47.1937 95.072C41.2417 103.642 59.7057 103.622 54.0865 95.0336C55.0849 95.136 57.0945 95.3472 58.0929 95.4496C58.9121 96.6784 59.2321 98.1312 59.0529 99.808C57.6129 107.904 44.1729 108.192 42.0545 100.25C42.0865 99.2576 42.1569 97.2608 42.1889 96.2624Z" fill="var(--fill-0, #2C504C)"/>
<path id="Vector_156" d="M847.616 96.2688C850.752 97.0624 850.88 98.816 847.424 98.7712C847.68 97.9584 847.68 97.1072 847.616 96.2688Z" fill="var(--fill-0, #D78C66)"/>
</g>
<defs>
<clipPath id="clip0_0_4">
<rect width="861.44" height="108.8" fill="white"/>
</clipPath>
</defs>
</svg>
