<?xml version="1.0" encoding="UTF-8" standalone="no"?>
<svg xmlns:rdf="http://www.w3.org/1999/02/22-rdf-syntax-ns#" xmlns="http://www.w3.org/2000/svg" height="170pt" width="1346pt" version="1.1" xmlns:cc="http://creativecommons.org/ns#" xmlns:dc="http://purl.org/dc/elements/1.1/" viewBox="0 0 1346 170">
<path fill="#eb6c64" d="m942.58 0h61.38v0.99c-8.41 1.25-19.58-2.64-26.6 2.92-1.18 27.48 4.57 56.84 2.55 83.39 2.3 2.79 7.2 2.7 8.95 5.04-47.33-3.55-94.74 3.4-141.39 11.14-82.69 14.18-165.58 27.66-248.97 37.03-53.35 3.55-111.3 15.05-161.79-7.15 0.65-1.08 0.77-2.35 0.83-3.58 2.7-26.8 1.51-53.82 3.6-80.66-12.75 4.81-23.84 13.76-36.12 19.82-0.73-0.7-1.45-1.39-2.16-2.08 12.45-7.94 25.52-15.19 38.41-22.47 16.49 3.71 33.14 7.39 50.13 8.25 152.46 5.77 300.33-39.02 451.14-52.64z"/>
<path fill="#e8544f" d="m977.36 3.91c7.02-5.56 18.19-1.67 26.6-2.92 11.84 0.12 23.65 1.87 35.12 4.8 5.46 2.1 7.39 7.63 5.55 13.04-0.8 16.96 1.7 33.95 1.61 50.93 1.4 10.03-1.98 23.98 6.83 31.35-20.63-4.85-41.68-7.63-62.79-9.2-0.27 1.56-0.8 4.7-1.06 6.26-0.11-1.94-0.2-3.89-0.36-5.83-1.75-2.34-6.65-2.25-8.95-5.04 2.02-26.55-3.73-55.91-2.55-83.39z"/>
<path fill="#ea6a63" d="m1039.1 5.79c12.96 2.58 25.91 7.17 36.79 14.8 1.31 11.69-1.8 25.77 1.32 36.23 40.12-7.24 80.41-17.66 121.64-16.85 35.75-3.96 70.65 6.39 105.43 12.81 15.18 0.42 29.65 6.59 41.74 15.52v0.93c-12.17-3.37-23.18 1.93-33.85 7.04-15.48 1.54-33.18-7.29-46.79 4.09-10.32 9.12-25.29 6.97-37.21 8.54 9.83 23.5 41.49 20.36 57.03 38.91 10.17 14.63 29.5 18.46 43.63 25.22-13.66 1.68-28.96 5.08-42.9 1.15-34.79-13.73-73.17-9.08-109.65-10.01-51.9 10.37-104.15 18.93-156.61 25.83h-5.43c-29.78 0-28.6-35.9-25.35-56.27 3.55 6.91-7.6 34.51 6.91 26.01 24.88-15.37 58.11 9.83 80.24-11.17 2.78-13.27-10.64-24.98-22.95-27.46-8.81-7.37-5.43-21.32-6.83-31.35 0.09-16.98-2.41-33.97-1.61-50.93 1.84-5.41-0.09-10.94-5.55-13.04z"/>
<path fill="#214c4d" d="m122.11 22.84c20.92-5.24 43.6-1.09 64.54 3.47 3.33 1.45 12.45 3.25 7.53 7.9-22.46 14.24-47.49 23.65-71.35 35.22-21.2 1.14-42.44 0.45-63.66 0.44-0.9-1.85-1.45-3.91-0.31-5.8 22.33-11.7 43.22-26.04 63.25-41.23z"/>
<path fill="#214c4d" d="m279.43 37.99c9.2-2.82 19-2.17 28.52-2.9-0.89 14.87-1.94 29.74-3.2 44.59-0.01 2.26-1.31 4.07-3.71 3.15-14.68-2.56-29.96-2.52-44.29-6.56 10.64-10.96 10.98-28.39 22.68-38.28z"/>
<path fill="#edddc2" d="m0 91.43c2.44-18.9 7.81-45.18 30.66-48.19 14.37-1.79 20.05 13.06 28.2 20.83-1.14 1.89-0.59 3.95 0.31 5.8 3.09 9 3.64 18.67 3.79 28.11 0.63 9.39-5 18.34-4.87 27.14-3.16 2.58-5.35 6.1-6.82 9.86-6.79 7.43-16.95 13.09-27.14 9.01-17.02-8.12-21.73-28.44-24.13-45.37v-7.19m16.2-39.32c-17.79 22.57-18.52 56.93-2.68 80.7 5.67-2.09 5.2 6.43 10.39 4.08 0.67-9.32-1.19-19.15 1.96-28.11 4.64 5.45 3.28-3.24 2.85-7.07 1.79-12.31 6.07-1.18 7.54 5.05-3.59 12.35 9.86 15.12 18.46 17.06 9.06-17.65 6.93-39.34 1.2-57.88-5.98 4.81-19.02 1.35-18.84 11.12-1.12 3.93-4.1 20.29-6.41 13.2-1.54-3.91 3.32-20.27-2.9-14.12-5.84-7.43 5.05-34.87-11.57-24.03m34.87 76.17c-3.42 1.47-7.47 2.15-10.12 4.97 2.36 7.03 15.58-4.64 10.12-4.97z"/>
<path fill="#e4c891" d="m16.2 52.11c16.62-10.84 5.73 16.6 11.57 24.03 6.22-6.15 1.36 10.21 2.9 14.12-2.41-4.28-0.04-10.14-3.45-13.79-6 8.99-4.93 20.47-2.13 30.36 2.76 0.63 2.38-3.49 3.63-5.12 0.43 3.83 1.79 12.52-2.85 7.07-3.15 8.96-1.29 18.79-1.96 28.11-5.19 2.35-4.72-6.17-10.39-4.08-15.84-23.77-15.11-58.13 2.68-80.7z"/>
<path fill="#33514d" d="m183.63 56.82c4.08-3.66 11.88-1.73 13.4 3.58 2.06 4.41-6.21 9.14 0.13 11.54 1.73 9.78-13.68 11.91-19.35 6.09 0.41-4.2 3.2-8.01 7.45-8.89 7.85-0.8 4.5-11.22-1.63-12.32z"/>
<path fill="#ddd8be" d="m185.26 69.14c-3.73-3.13-3.8-8.26-1.63-12.32 6.13 1.1 9.48 11.52 1.63 12.32z"/>
<path fill="#c26a67" d="m37.08 77.06c-0.18-9.77 12.86-6.31 18.84-11.12 5.73 18.54 7.86 40.23-1.2 57.88-8.6-1.94-22.05-4.71-18.46-17.06 0.9 1.49 1.14 4.7 3.51 4.09 6.49-9.52 8.91-22.91 2.56-33.11-1.11-2.16-4.58-4.33-5.25-0.68z"/>
<path fill="#c05b4f" d="m370.13 85.4c10.38-7.12 22.19-11.93 32.73-18.54 0.71 0.69 1.43 1.38 2.16 2.08-10.19 7.07-22.29 11.26-31.97 19 21.67 13.69 42.71 28.34 64.49 41.84-0.06 1.23-0.18 2.5-0.83 3.58-22.63-14.46-44.95-29.46-67.62-43.81-18.83-1.16-37.88-0.48-56.76-0.43-28.94 9.49-58.51 16.87-88.09 24.04-3.56 0.68-3.76 4.84-0.73 6.39 4.76 4.79-5.92 11.02-7.78 4.68 0.45-5.37-4.88-6.4-8.79-7.08-29.34 5.56-58.84 11.82-88.79 12.93 25.49-11.09 52.89-19.12 76.23-34.87 0.41-1.3 0.6-2.65 0.85-3.99 37.11-3.74 74.65-3.54 111.84-7.17 20.8 3.41 42.15 2.03 63.06 1.35z"/>
<path fill="#d07676" d="m59.17 69.87c21.22 0.01 42.46 0.7 63.66-0.44 17.56 5.77 45.31-9.38 54.98 8.6 5.67 5.82 21.08 3.69 19.35-6.09 18.65-2.92 39.88 5.98 59.59 4.33 14.33 4.04 29.61 4 44.29 6.56 2.4 0.92 3.7-0.89 3.71-3.15-0.18 1.86 0.88 3.32 2.32 4.37-37.19 3.63-74.73 3.43-111.84 7.17-18.86-7.88-40.29-7.13-60.36-9.29-12.69-2.69-20.18 8.77-29.92 14.22-13.99-0.27-28.14-0.35-41.99 1.83-0.15-9.44-0.7-19.11-3.79-28.11z"/>
<path fill="#2b4d4f" d="m37.08 77.06c0.67-3.65 4.14-1.48 5.25 0.68 6.35 10.2 3.93 23.59-2.56 33.11-2.37 0.61-2.61-2.6-3.51-4.09-1.47-6.23-5.75-17.36-7.54-5.05-1.25 1.63-0.87 5.75-3.63 5.12-2.8-9.89-3.87-21.37 2.13-30.36 3.41 3.65 1.04 9.51 3.45 13.79 2.31 7.09 5.29-9.27 6.41-13.2z"/>
<path fill="#1d474b" d="m104.95 96.15c9.74-5.45 17.23-16.91 29.92-14.22 20.07 2.16 41.5 1.41 60.36 9.29-0.25 1.34-0.44 2.69-0.85 3.99-23.34 15.75-50.74 23.78-76.23 34.87-4.45 1.16-8.63 3.23-13.15 4.15-12.54-6.23-29.99-12.19-41.39 0.67-4.12 0.05-8.23 0.01-12.34 0.08 1.47-3.76 3.66-7.28 6.82-9.86 17.15-6.74 32.65-17.37 46.86-28.97z"/>
<path fill="#b91e18" d="m990.28 91.91c21.11 1.57 42.16 4.35 62.79 9.2 12.31 2.48 25.73 14.19 22.95 27.46-22.13 21-55.36-4.2-80.24 11.17-14.51 8.5-3.36-19.1-6.91-26.01 0.26-5.18 0.08-10.38 0.35-15.56 0.26-1.56 0.79-4.7 1.06-6.26z"/>
<path fill="#ba5852" d="m62.96 97.98c13.85-2.18 28-2.1 41.99-1.83-14.21 11.6-29.71 22.23-46.86 28.97-0.13-8.8 5.5-17.75 4.87-27.14z"/>
<path fill="#b7584f" d="m63.61 134.9c11.4-12.86 28.85-6.9 41.39-0.67-12.78-2.11 8.07 17.84-6.79 13.86-6.99-3.31-4.79 4.93-5.9 7.98 3.13-12.25-31.07-13.98-26.66 0.89-2.62-8.28-8.33-12.55-2.04-22.06z"/>
<path fill="#5a6d61" d="m51.07 128.28c5.46 0.33-7.76 12-10.12 4.97 2.65-2.82 6.7-3.5 10.12-4.97z"/>
<path fill="#2b5453" d="m65.65 156.96c-4.41-14.87 29.79-13.14 26.66-0.89-2.61 12.44-22.68 12.89-26.66 0.89z"/>
<path fill="#e27b66" d="m942.81 0h22.47c-2.43 0.57-4.84 1.16-7.2 1.8-58.01-0.55-115.07 15.01-172.21 21.25 51.92-9.81 104.13-19.4 156.94-23.05z"/>
<path fill="#e26d5c" d="m965.28 0h28.22l0.69 0.68-0.94 0.14c-0.7 0.08-2.11 0.22-2.81 0.3-6.39 0.22-12.74 0.4-19.12 0.51-1.62 0-4.85-0.01-6.46-0.02l-0.93 0.02c-1.96 0.07-3.91 0.17-5.85 0.17 2.36-0.64 4.77-1.23 7.2-1.8z"/>
<path fill="#e68868" d="m993.5 0h9.9l0.6 0.75c-3.3 0.02-6.52 0.19-9.81-0.07l-0.69-0.68z"/>
<path fill="#eb6b65" d="m785.87 23.05c57.14-6.24 114.2-21.8 172.21-21.25 1.94 0 3.89-0.1 5.85-0.17-9.81 8.56-0.1 24.89-3.35 36.22 7.95 15.58-1.6 35.66 5.11 50.34 0.58 0.17 1.73 0.49 2.31 0.65-13.2 2.5-30.4-3.3-41.24 4.21-88.04 8.65-174.49 28.83-262.35 39.09-41.36 3.7-83.11 9.06-124.56 12.87l-0.92-0.03c-3.53 0.35-6.99-0.08-10.48 0.08-30.44 0.35-61.16-1.72-90.4-11.08-0.24-1.25-0.49-2.5-0.71-3.75l0.52-0.6c6.3-25.03 3.16-55.34 3.03-80.25-0.41-0.04-1.23-0.13-1.64-0.17 1.29-1.43 3.16-2.97 1.46-4.86 13.67 2.45 27.16 6.35 41.05 7.81 2.96 1.44 6.16 1.6 9.34 0.89l0.92-0.08c4.62 0.58 9.29 1.05 13.96 1.07 12.75-0.08 25.5 0.06 38.25-0.05 9.46-1.4 19.45 1.36 28.58-2.13 30.92-2.83 61.82-6.42 92.69-9.94 40.18-2.76 80.82-10.73 120.37-18.87z"/>
<path fill="#ea625c" d="m971.32 1.63c6.38-0.11 12.73-0.29 19.12-0.51-1.61 0.21-4.83 0.64-6.44 0.86-2.34 0.37-5.02 0.2-6.86 1.9-0.67 26.88 4.21 53.61 2.95 80.46-2.13 4.27 4.34 4.71 6.89 6.57-1.87 0.01-3.72 0.07-5.56 0.07-3.08-2.34-8.62-2.82-7.27-7.94 3.81-27.2-7.37-54.27-2.83-81.41z"/>
<path fill="#e95a54" d="m990.44 1.12c0.7-0.08 2.11-0.22 2.81-0.3-10.36 27.63 6.24 62.53-2.68 90.86l-0.77 0.38-0.8 0.42c-0.31-0.31-0.94-0.92-1.25-1.22-2.63-27.77-1.87-59.8-3.75-89.28 1.61-0.22 4.83-0.65 6.44-0.86z"/>
<path fill="#e85651" d="m993.25 0.82l0.94-0.14c3.29 0.26 6.51 0.09 9.81 0.07l0.9 0.53 0.8 0.52c-1.2 0.47-2.4 0.89-3.7 1.27-3.17 0.28-9.38 0.29-6.11 6.07 2.27 26.79-0.04 53.71 2.05 80.51-2.4 0.85-5 1.34-7.37 2.03 8.92-28.33-7.68-63.23 2.68-90.86z"/>
<path fill="#e38062" d="m1004.9 1.28c3.7 0.19 7.5 0.38 11.3 0.56-0.7 0-2.1 0-2.8 0.01-2.6-0.04-5.2-0.05-7.7-0.05l-0.8-0.52z"/>
<path fill="#ec6863" d="m963.93 1.63l0.93-0.02c4.76 13.56-1.08 31.22 3.36 43.99-3.91 13.87 6.81 30.55-2.53 42.59-6.71-14.68 2.84-34.76-5.11-50.34 3.25-11.33-6.46-27.66 3.35-36.22z"/>
<path fill="#ea655f" d="m964.86 1.61c1.61 0.01 4.84 0.02 6.46 0.02-4.54 27.14 6.64 54.21 2.83 81.41-1.35 5.12 4.19 5.6 7.27 7.94-1.32 0.09-2.63 0.11-3.92 0.06-3.24-0.69-6.31-1.51-9.5-2.2-0.58-0.16-1.73-0.48-2.31-0.65 9.34-12.04-1.38-28.72 2.53-42.59-4.44-12.77 1.4-30.43-3.36-43.99z"/>
<path fill="#ea5e58" d="m977.14 3.88c1.84-1.7 4.52-1.53 6.86-1.9 1.88 29.48 1.12 61.51 3.75 89.28l-0.77-0.35c-2.55-1.86-9.02-2.3-6.89-6.57 1.26-26.85-3.62-53.58-2.95-80.46z"/>
<path fill="#e84f4a" d="m1005.7 1.8c2.5 0 5.1 0.01 7.7 0.05l-0.6 0.67c-4.9-0.44-7.1 3.43-4.6 8.08 0.1 26.74 2.4 53.47 2.8 80.25-2.7 0.89-5.8 1.09-8.6 1.41 7.1-7.36 1.6-19.4 2.1-28.57 1-20.31-2.5-40.39-2.5-60.62 1.3-0.38 2.5-0.8 3.7-1.27z"/>
<path fill="#e6554e" d="m1013.4 1.85c0.7-0.01 2.1-0.01 2.8-0.01 3.2 0.19 6.4 0.49 9.6 1.19 1.8 0.93 3.6 1.93 5.4 2.92 4.6 18.14-1.4 38.3 3.9 56.89 3.3 11.16-4.5 26.41 5 35.35-2.9-0.55-5.9-0.89-8.8-1.1l-0.6-0.66c-1.9-28.08-2.5-56.74-4.3-84.97 3.6-7.42-8.1-6.77-12.7-8.73l-0.9-0.21 0.6-0.67z"/>
<path fill="#ea524d" d="m995.89 9.14c-3.27-5.78 2.94-5.79 6.11-6.07 0 20.23 3.5 40.31 2.5 60.62-0.5 9.17 5 21.21-2.1 28.57-1.7 0.03-5.17 0.09-6.9 0.12-1.62-0.09-3.21-0.18-4.8-0.27l-0.9-0.05 0.77-0.38c2.37-0.69 4.97-1.18 7.37-2.03-2.09-26.8 0.22-53.72-2.05-80.51z"/>
<path fill="#e84b46" d="m1008.2 10.6c-2.5-4.65-0.3-8.52 4.6-8.08l0.9 0.21c2.3 1.11 4.7 2.22 6.8 3.8 0.5 19.3 1.8 38.54 2.4 57.78 4.3 9.58-5.3 26.17 6.1 31.81-1.2-0.16-2.3-0.31-3.5-0.43-4.2-0.51-8.3-1.58-12.5-1.9-1.2-0.02-2.4 0-3.6 0.06-4.7-0.38-9.3-1.13-13.9-1.47 1.73-0.03 5.2-0.09 6.9-0.12 2.8-0.32 5.9-0.52 8.6-1.41-0.4-26.78-2.7-53.51-2.8-80.25z"/>
<path fill="#e7504a" d="m1013.7 2.73c4.6 1.96 16.3 1.31 12.7 8.73 1.8 28.23 2.4 56.89 4.3 84.97-0.4-0.08-1.3-0.23-1.7-0.31-11.4-5.64-1.8-22.23-6.1-31.81-0.6-19.24-1.9-38.48-2.4-57.78-2.1-1.58-4.5-2.69-6.8-3.8z"/>
<path fill="#e45e56" d="m1025.8 3.03c4.3 0.93 8.6 2.15 12.9 3.19 2.1 0.91 4.1 1.93 6.1 2.95-0.5 24.62 1.2 49.22 1.9 73.86 0.8 6.29 0.8 13.94 6.3 18.26-2.4-0.62-4.8-1.26-7.2-1.85-6.8-7.44-1.9-18.25-3.2-27.11-1.8-20.61-1.8-41.27-3.1-61.9-2.3-2.12-5.6-2.98-8.3-4.48-1.8-0.99-3.6-1.99-5.4-2.92z"/>
<path fill="#e65952" d="m1031.2 5.95c2.7 1.5 6 2.36 8.3 4.48 1.3 20.63 1.3 41.29 3.1 61.9 1.3 8.86-3.6 19.67 3.2 27.11-1.9-0.45-3.8-0.86-5.7-1.25-9.5-8.94-1.7-24.19-5-35.35-5.3-18.59 0.7-38.75-3.9-56.89z"/>
<path fill="#e2685d" d="m1038.7 6.22c11.5 1.36 22.5 5.57 32.4 11.37 10.6 10.95-3.7 31.52 6.9 41.81-3.4 22.62 3.2 45.95-0.8 68.31-0.5-10.84-8.2-19.49-17.2-24.67-2.3-2.72-5.6-5.17-5-9.24-3.5-26.7-2-53.65-4.6-80.42-1-2.19-3.6-3.03-5.6-4.21-2-1.02-4-2.04-6.1-2.95z"/>
<path fill="#e4635a" d="m1044.8 9.17c2 1.18 4.6 2.02 5.6 4.21 2.6 26.77 1.1 53.72 4.6 80.42-0.6 4.07 2.7 6.52 5 9.24-2.3-0.64-4.7-1.12-7-1.75-5.5-4.32-5.5-11.97-6.3-18.26-0.7-24.64-2.4-49.24-1.9-73.86z"/>
<path fill="#de7a62" d="m1071.1 17.59c16 6.08-8.4 45.01 14.8 38.46-2.6 1.29-5.2 2.47-7.9 3.35-10.6-10.29 3.7-30.86-6.9-41.81z"/>
<path fill="#acac8a" d="m128.66 20.72c5.69-1.36 11.55-0.51 17.28 0.16-0.74 0.04-2.22 0.12-2.95 0.16-4.79-0.06-9.56-0.37-14.33-0.32z"/>
<path fill="#1e4b4d" d="m58.86 63.96c25.12-11.37 45.46-31.4 69.8-43.24 4.77-0.05 9.54 0.26 14.33 0.32 8.29 1.08 16.65 1.4 24.99 1.92 5.3 1.35 10.68 2.66 16.17 2.86 3.87 1.37 15.29 3.03 9.99 8.37-22.36 14.17-47.2 23.79-71.12 34.98-0.45-0.01-1.33-0.03-1.78-0.03-20.78-0.41-41.57-0.05-62.35-0.03-1.34-1.57-0.85-3.48-0.03-5.15z"/>
<path fill="#858e71" d="m142.99 21.04c0.73-0.04 2.21-0.12 2.95-0.16 7.38 0.14 14.79 0.55 22.04 2.08-8.34-0.52-16.7-0.84-24.99-1.92z"/>
<path fill="#888e70" d="m167.98 22.96c5.44 0.56 10.97 1.03 16.17 2.86-5.49-0.2-10.87-1.51-16.17-2.86z"/>
<path fill="#e27a65" d="m665.5 41.92c40.09-6.41 80.15-13.33 120.37-18.87-39.55 8.14-80.19 16.11-120.37 18.87z"/>
<path fill="#214b4d" d="m279.48 37.86c10.97-1.08 34.36-9.62 27.57 9.17-0.4 4-0.72 8.01-0.99 12.03-0.05 0.7-0.15 2.11-0.2 2.82-0.26 3.8-0.49 7.61-0.69 11.42-0.15 3.11-0.06 6.22 0 9.34-3.46 1.96-7.37 0.68-11.05 0.21-7.66-1.48-15.29-3.28-23.07-3.96-4.84-0.72-9.65-1.66-14.5-2.35 10.67-11.13 11.26-28.56 22.93-38.68z"/>
<path fill="#e59775" d="m1208.7 39.78c4.7-1.57 9.6-0.36 14.5-0.04-4.9 0.01-9.7-0.01-14.5 0.04z"/>
<path fill="#e6836c" d="m1181.8 40.85c3.4-0.88 6.9-0.91 10.4-0.65-3.5 0.2-6.9 0.54-10.4 0.65z"/>
<path fill="#ec6b65" d="m1192.2 40.2c5.5-0.08 11-0.23 16.5-0.42 4.8-0.05 9.6-0.03 14.5-0.04 25 0.73 49 8.22 73.6 12.58 4.9 0.99 10 1.39 15.1 1.75 10.7 2 20.6 6.81 30.1 11.97-1.3 1.07-2.6 1.96-4.2 2.45-14.7-1.26-26.7 13.95-41.7 6.43-23-12.37-38.1 16.77-60.9 11.17-18.9-0.98 1.9 21.12 11 22.78 30.1 4.57 43.8 36.34 73 42.29-8.8 4.51-22.5 2.99-33 0.8-26.6-9.78-55.6-10.8-83.7-9.28-8 0.24-15.9 0.19-23.9 0.37-47 7.31-94.1 16.18-141.2 23.53 5-8.92-5.1-24.04 5.2-28.75 4.1-0.07 8.4 0.05 12.6-0.42 8.1-0.65 16.5-3.41 22-9.7 4-22.36-2.6-45.69 0.8-68.31 2.7-0.88 5.3-2.06 7.9-3.35 9.8 0.28 19.9-2.41 29-6.24 21.9-5.68 44.4-7.77 66.9-8.96 3.5-0.11 6.9-0.45 10.4-0.65z"/>
<path fill="#f6ead2" d="m26.54 43.72c3.06-0.95 6.29-0.42 9.4-0.09-13.35-0.21-1 21.13-4.64 29.04-3.09-8.62 1.04-18.85-3.33-26.89-0.36-0.51-1.07-1.54-1.43-2.06z"/>
<path fill="#f8e5c3" d="m0 91.37c2.47-17.9 6.84-41.3 26.54-47.65 0.36 0.52 1.07 1.55 1.43 2.06-3.44 1.44-6.91 2.93-9.93 5.14-1.17 0.86-2.24 1.84-3.25 2.88-4.14 5.36-7.28 11.49-9.1 18.02-1.55 5.31-2.38 10.79-2.77 16.3-2.13 13 0.42 26.67 6.81 38.16 0.25 0.5 0.74 1.51 0.99 2.02 0.84 1.71 1.96 3.29 3.25 4.7 3.26 3.94 7.03 7.86 12.22 9.01l0.81 0.28-1.2 2.28c-18.21-7.04-23.4-28.53-25.8-45.85v-7.35z"/>
<path fill="#faf4e5" d="m31.3 72.67c3.64-7.91-8.71-29.25 4.64-29.04 1.12 0.19 2.2 0.5 3.26 0.91-6.97 6.71-1.3 18.17-3.83 26.87-0.73 2.23-2.2 2.63-4.07 1.26z"/>
<path fill="#eedfc6" d="m39.2 44.54c9.66 2.93 12.39 13.85 19.66 19.42-0.82 1.67-1.31 3.58 0.03 5.15l0.53 0.73c0.24 0.38 0.71 1.15 0.95 1.53-0.08 0.64-0.24 1.92-0.33 2.56-0.2 0.59-0.62 1.76-0.83 2.35-0.73-2.12-1.54-4.2-2.35-6.29-0.54-1.49-1.08-2.98-1.72-4.43-2-4.12-4.12-8.26-7.1-11.76-12.83-15.59-9.77 7.99-9.45 16.87-1.23 1.17-2.45 2.35-3.62 3.59 0.1-0.72 0.3-2.14 0.4-2.85 2.53-8.7-3.14-20.16 3.83-26.87z"/>
<path fill="#d66d51" d="m369.95 85.34c23.65-13.53 47.33-27.08 70.76-40.99 1.7 1.89-0.17 3.43-1.46 4.86-21.9 12.87-44.04 25.34-66.08 37.97 20.51 15.24 43.19 28.14 64.17 43.05 0.22 1.25 0.47 2.5 0.71 3.75-23.36-14.22-45.73-30.12-69.06-44.35-18.56-1.55-37.36-0.25-56-0.59 0.91-1.15 1.8-2.31 2.73-3.45 18.03 0.67 36.28 1.02 54.23-0.25z"/>
<path fill="#ecd9b4" d="m18.04 50.92c3.02-2.21 6.49-3.7 9.93-5.14 1.36 8.95 0.15 18.11 1.64 27.03-0.15 0.64-0.45 1.93-0.59 2.58l-0.6-0.67c-4.35-8.47 5.56-33.89-10.38-23.8z"/>
<path fill="#efe1c5" d="m27.97 45.78c4.37 8.04 0.24 18.27 3.33 26.89l0.44 1.8c-0.53-0.42-1.59-1.25-2.13-1.66-1.49-8.92-0.28-18.08-1.64-27.03z"/>
<path fill="#898b6c" d="m306.06 59.06c0.27-4.02 0.59-8.03 0.99-12.03-0.4 4-0.68 8.02-0.99 12.03z"/>
<path fill="#ead3a4" d="m18.04 50.92c15.94-10.09 6.03 15.33 10.38 23.8-0.92 1.04-1.83 2.08-2.71 3.16-3.12-7.09-1.73-23.71-10.92-24.08 1.01-1.04 2.08-2.02 3.25-2.88z"/>
<path fill="#ecd4aa" d="m38.59 70.67c-0.32-8.88-3.38-32.46 9.45-16.87-5.62 3.29-5.63 10.84-7.98 16.33-0.27 0.3-0.81 0.91-1.09 1.21l-0.38-0.67z"/>
<path fill="#e27b66" d="m440.89 49.38c0.13 24.91 3.27 55.22-3.03 80.25 1.9-26.7 1.78-53.51 3.03-80.25z"/>
<path fill="#e27c65" d="m1085.9 56.05c9.4-3 19.2-4.71 29-6.24-9.1 3.83-19.2 6.52-29 6.24z"/>
<path fill="#e38169" d="m481.76 52.16c3.13 0.17 6.18 0.71 9.34 0.89-3.18 0.71-6.38 0.55-9.34-0.89z"/>
<path fill="#e27e67" d="m543.92 53.06c9.63-0.44 19.26-0.73 28.89-1.2-9.13 3.49-19.12 0.73-28.58 2.13l-0.31-0.93z"/>
<path fill="#e28369" d="m1296.8 52.32c5 0.18 10.1 0.62 15.1 1.75-5.1-0.36-10.2-0.76-15.1-1.75z"/>
<path fill="#e6c78c" d="m14.79 53.8c9.19 0.37 7.8 16.99 10.92 24.08l-0.08 0.78c-0.62 1.82-1.27 3.62-1.87 5.45-0.4 1.08-0.72 2.18-0.98 3.31-0.69 3.09-0.73 6.2-0.09 9.31 0.24 1.51 0.71 2.96 1.1 4.43 0.4 1.7 0.8 3.4 1.19 5.1-0.01 0.39-0.03 1.18-0.05 1.58-0.02 0.41-0.06 1.25-0.08 1.67-0.59 1.42-1.22 2.83-1.83 4.25-4.57 4.47-4.42 19.05-12.3 14.54-0.25-0.51-0.74-1.52-0.99-2.02-4.28-12.28-5.83-25.25-6.81-38.16 2.5-5.05 2.28-10.83 2.77-16.3 1.82-6.53 4.96-12.66 9.1-18.02z"/>
<path fill="#e18066" d="m492.02 52.97c4.62 0.37 9.24-0.19 13.88 0.08l0.08 0.99c-4.67-0.02-9.34-0.49-13.96-1.07z"/>
<path fill="#e59572" d="m505.9 53.05c12.67-0.15 25.34-0.05 38.02 0.01l0.31 0.93c-12.75 0.11-25.5-0.03-38.25 0.05l-0.08-0.99z"/>
<path fill="#e5c790" d="m40.06 70.13c2.35-5.49 2.36-13.04 7.98-16.33 2.98 3.5 5.1 7.64 7.1 11.76-2.05 1.37-4.14 2.66-6.26 3.92-2.94 0.2-5.88 0.39-8.82 0.65z"/>
<path fill="#33514d" d="m183.63 56.75c4.21-3.39 11.81-1.7 13.35 3.65 1.12 3.94-5.28 9.28 0.11 11.55 2.04 9.91-13.62 11.69-19.3 6.12 0.61-4.18 3.16-7.89 7.44-8.89 7.91-1.28 4.39-10.95-1.6-12.43z"/>
<path fill="#ddd8be" d="m185.23 69.18c-3.46-3.33-3.86-8.31-1.6-12.43 5.99 1.48 9.51 11.15 1.6 12.43z"/>
<path fill="#838c71" d="m305.17 73.3c0.2-3.81 0.43-7.62 0.69-11.42-0.24 3.8-0.47 7.61-0.69 11.42z"/>
<path fill="#5f5f51" d="m48.88 69.48c2.12-1.26 4.21-2.55 6.26-3.92 0.64 1.45 1.18 2.94 1.72 4.43-2.66-0.2-5.31-0.4-7.98-0.51z"/>
<path fill="#dd8d6a" d="m1342 66.04c1.5 0.55 3.4 0.82 4 2.6v0.93c-2.8-0.4-5.5-0.83-8.2-1.08 1.6-0.49 2.9-1.38 4.2-2.45z"/>
<path fill="#cd7879" d="m40.06 70.13c2.94-0.26 5.88-0.45 8.82-0.65 2.67 0.11 5.32 0.31 7.98 0.51 0.81 2.09 1.62 4.17 2.35 6.29 0.93 8.89 2.37 17.85 1.18 26.79-0.09-0.7-0.26-2.1-0.35-2.8 0.66-7.43-9.32-3.45-14.14-3.56-0.12-4.18 0.37-8.43-0.46-12.56-1.44-3.68-2.49-8.88-7.26-9.09 0.28-1.24 0.54-2.48 0.79-3.72 0.28-0.3 0.82-0.91 1.09-1.21z"/>
<path fill="#5a5656" d="m58.89 69.11c20.78-0.02 41.57-0.38 62.35 0.03-0.36 0.29-1.07 0.88-1.43 1.17-14.29-0.33-28.58-0.46-42.88-0.31-5.83-0.15-11.68 0.12-17.51-0.16l-0.53-0.73z"/>
<path fill="#c67d7f" d="m121.24 69.14c0.45 0 1.33 0.02 1.78 0.03 0.37 0.23 1.12 0.7 1.49 0.94-20.03 5.67-42.24-1.48-62.63 2.99 0.25 4.38 0.97 8.73 1.11 13.12-0.69-4.16-1.75-8.24-2.95-12.29 0.09-0.64 0.25-1.92 0.33-2.56 5.49-0.09 10.98-0.28 16.47-0.37 14.18-0.93 29.18 1.64 42.97-0.69 0.36-0.29 1.07-0.88 1.43-1.17z"/>
<path fill="#a17b7b" d="m59.42 69.84c5.83 0.28 11.68 0.01 17.51 0.16l-0.09 1c-5.49 0.09-10.98 0.28-16.47 0.37-0.24-0.38-0.71-1.15-0.95-1.53z"/>
<path fill="#b47e80" d="m76.93 70c14.3-0.15 28.59-0.02 42.88 0.31-13.79 2.33-28.79-0.24-42.97 0.69l0.09-1z"/>
<path fill="#d27778" d="m124.51 70.11c17.11 3.85 43.72-9.51 53.28 7.96 5.68 5.57 21.34 3.79 19.3-6.12 18.77-2.74 39.14 5.4 58.64 4.63 4.86 2.2 10.1 2.19 15.32 2.31 7.78 0.68 15.41 2.48 23.07 3.96-33.6 3.49-68.37 0.38-101.35 7.01-20.33-5.53-41.52-7.27-62.51-7.83-9.12-0.76-14.83 7.73-22.05 11.87-15.03-1.68-30.12 0.98-45.18 1.13-0.02-2.94 0.09-5.87-0.04-8.81-0.14-4.39-0.86-8.74-1.11-13.12 20.39-4.47 42.6 2.68 62.63-2.99z"/>
<path fill="#e2eced" d="m31.3 72.67c1.87 1.37 3.34 0.97 4.07-1.26-0.1 0.71-0.3 2.13-0.4 2.85-0.12 3.2 0.12 6.42 0.17 9.64-0.72 2.11-1.58 4.19-2.15 6.35-0.39-5.26-0.36-10.57-1.25-15.78l-0.44-1.8z"/>
<path fill="#a6aeb2" d="m38.59 70.67l0.38 0.67c-0.25 1.24-0.51 2.48-0.79 3.72-0.68 3.06-1.73 5.99-3.04 8.84-0.05-3.22-0.29-6.44-0.17-9.64 1.17-1.24 2.39-2.42 3.62-3.59z"/>
<path fill="#e5cd9c" d="m2.92 88.12c0.39-5.51 1.22-10.99 2.77-16.3-0.49 5.47-0.27 11.25-2.77 16.3z"/>
<path fill="#b4c5c5" d="m29.61 72.81c0.54 0.41 1.6 1.24 2.13 1.66 0.89 5.21 0.86 10.52 1.25 15.78-0.35 5.55-3.64 1.19-3.3-2.16-0.25-4.21 0.68-8.62-0.67-12.7 0.14-0.65 0.44-1.94 0.59-2.58z"/>
<path fill="#e27764" d="m1235.2 86.09c22.8 5.6 37.9-23.54 60.9-11.17-24.9-6.21-42.4 20.05-67.9 13.97 3.8 9.82 15.3 18.44 26.7 21.21 26.9 7.14 41.1 36.09 69.5 40.32 0.1 1.31 0.1 2.64-0.3 3.91-28.3 7.17-54-8.82-81.9-9.48-4.8-0.37-9.6-0.61-14.4-0.75-7.9-0.08-15.8-0.09-23.7-0.26l-1.6-1.16c28.1-1.52 57.1-0.5 83.7 9.28 10.5 2.19 24.2 3.71 33-0.8-29.2-5.95-42.9-37.72-73-42.29-9.1-1.66-29.9-23.76-11-22.78z"/>
<path fill="#f3cac4" d="m60.04 73.93c1.2 4.05 2.26 8.13 2.95 12.29 0.13 2.94 0.02 5.87 0.04 8.81v2.93c0 0.48-0.01 1.44-0.01 1.92-0.38 8.67-4.59 16.63-5.03 25.25-1.47 1.5-2.94 3-4.31 4.59-0.23-0.48-0.68-1.45-0.91-1.94 0.72-1.55 1.42-3.11 2.13-4.67 3.15-6.22 4.49-13.19 5.49-20.04 1.19-8.94-0.25-17.9-1.18-26.79 0.21-0.59 0.63-1.76 0.83-2.35z"/>
<path fill="#859996" d="m28.42 74.72l0.6 0.67c1.35 4.08 0.42 8.49 0.67 12.7-1.69-2.91 0.85-10.73-4.06-9.43l0.08-0.78c0.88-1.08 1.79-2.12 2.71-3.16z"/>
<path fill="#254a4d" d="m38.18 75.06c4.77 0.21 5.82 5.41 7.26 9.09-0.36 6.31-0.46 12.66-1.52 18.9-1.44 2.94-3.34 5.62-4.99 8.45-0.76-1.86-1.86-3.54-2.65-5.38-0.84-2.53-1.93-4.96-3.15-7.32-0.52-4.92-2.4-4.03-3.31 0.24-1.03 2.75-2.6 5.29-4.84 7.22-0.39-1.7-0.79-3.4-1.19-5.1-0.09-5.69-0.06-11.37-0.03-17.05 0.6-1.83 1.25-3.63 1.87-5.45 4.91-1.3 2.37 6.52 4.06 9.43-0.34 3.35 2.95 7.71 3.3 2.16 0.57-2.16 1.43-4.24 2.15-6.35 1.31-2.85 2.36-5.78 3.04-8.84z"/>
<path fill="#826b69" d="m255.73 76.58l0.82-0.04c4.85 0.69 9.66 1.63 14.5 2.35-5.22-0.12-10.46-0.11-15.32-2.31z"/>
<path fill="#1d474b" d="m108.21 93.9c7.22-4.14 12.93-12.63 22.05-11.87 20.99 0.56 42.18 2.3 62.51 7.83 0.82 1.39 1.62 2.8 2.4 4.22-13.26 9.96-28.84 16.63-44.16 22.9-4.61 0.91-9.09 2.45-13.02 5.07-2.65 0.98-5.32 1.94-8 2.83-4.24 0.98-8.28 2.61-11.79 5.21-4.4 1.35-8.67 3.19-13.2 4.05-5.33 0.58-9.37-3.15-13.84-5.32-1.5-0.78-2.96-1.7-4.6-2.16-3.06-1.06-6.09-0.98-9.09 0.22-0.59 0.2-1.77 0.61-2.36 0.81-0.54 0.26-1.62 0.79-2.16 1.05-3.44 1.9-6.57 4.29-9.83 6.47-3.93-0.05-7.86-0.06-11.79-0.11 0.79-1.79 1.58-3.58 2.35-5.38 1.37-1.59 2.84-3.09 4.31-4.59 15.61-6.05 29.89-15.45 42.93-25.84 1.12-0.67 2.18-1.44 3.23-2.24 1.4-0.99 2.79-1.99 4.06-3.15z"/>
<path fill="#cb6a69" d="m192.77 89.86c32.98-6.63 67.75-3.52 101.35-7.01 3.68 0.47 7.59 1.75 11.05-0.21 0.55 0.35 1.65 1.05 2.2 1.39-36.43 5.56-76.84 0.78-111.06 8.87-0.29 0.3-0.86 0.89-1.14 1.18-0.78-1.42-1.58-2.83-2.4-4.22z"/>
<path fill="#6e795d" d="m22.78 87.42c0.26-1.13 0.58-2.23 0.98-3.31-0.03 5.68-0.06 11.36 0.03 17.05-0.39-1.47-0.86-2.92-1.1-4.43-0.07-3.11-0.13-6.21 0.09-9.31z"/>
<path fill="#685255" d="m45.44 84.15c0.83 4.13 0.34 8.38 0.46 12.56-0.02 0.45-0.06 1.34-0.08 1.79-0.58 1.53-1.2 3.06-1.9 4.55 1.06-6.24 1.16-12.59 1.52-18.9z"/>
<path fill="#c65f5a" d="m196.31 92.9c34.22-8.09 74.63-3.31 111.06-8.87 1.46 0.29 4.38 0.85 5.84 1.13-38.54 5.59-77.96 5.31-116.9 7.74z"/>
<path fill="#be574d" d="m196.31 92.9c38.94-2.43 78.36-2.15 116.9-7.74 0.62 0.11 1.88 0.32 2.51 0.43-0.93 1.14-1.82 2.3-2.73 3.45-28.73 9.06-57.82 16.89-87.18 23.61-2.84 0.16-4.04 2.63-5.08 4.91-2.28 0.56-4.41 1.59-5.74 3.59-1.84-2.92-5.59-3.93-8.85-3.89-27.96 5.41-56.06 11.17-84.56 12.71 2.72-1.83 5.48-3.61 8.41-5.09 2.68-0.89 5.35-1.85 8-2.83 4.6-0.94 9.06-2.5 13.02-5.07 15.32-6.27 30.9-12.94 44.16-22.9 0.28-0.29 0.85-0.88 1.14-1.18z"/>
<path fill="#b6b288" d="m22.69 96.73c-0.64-3.11-0.6-6.22 0.09-9.31-0.22 3.1-0.16 6.2-0.09 9.31z"/>
<path fill="#e6ce9f" d="m9.73 126.28c-6.39-11.49-8.94-25.16-6.81-38.16 0.98 12.91 2.53 25.88 6.81 38.16z"/>
<path fill="#e37563" d="m926.76 93.05c10.84-7.51 28.04-1.71 41.24-4.21 3.19 0.69 6.26 1.51 9.5 2.2-0.5 0.01-1.48 0.04-1.97 0.05-6.43-0.14-12.86-0.05-19.26 0.1-3.85 0.16-7.68 0.36-11.48 0.61-6.02 0.42-12.01 1.12-18.03 1.25z"/>
<path fill="#e89173" d="m944.79 91.8c3.8-0.25 7.63-0.45 11.48-0.61-3.85 0.18-7.67 0.38-11.48 0.61z"/>
<path fill="#e88b6e" d="m975.53 91.09c0.49-0.01 1.47-0.04 1.97-0.05 1.29 0.05 2.6 0.03 3.92-0.06 1.84 0 3.69-0.06 5.56-0.07l0.77 0.35c0.31 0.3 0.94 0.91 1.25 1.22-4.49-0.54-9.01-1-13.47-1.39z"/>
<path fill="#b55135" d="m989 92.48l0.8-0.42c0.06 5.29 0.27 10.59 0.21 15.88l-1-0.07c-0.01-5.13-0.06-10.27-0.01-15.39z"/>
<path fill="#af2016" d="m989.8 92.06l0.9 0.05c4.04 0.33 1.24 4.02 1.16 6.5-0.78 14.14-0.02 28.29-0.68 42.44-0.44-4.31-0.86-8.61-1.25-12.91 0.01-6.74 0.15-13.47 0.08-20.2 0.06-5.29-0.15-10.59-0.21-15.88z"/>
<path fill="#b51c17" d="m990.7 92.11c1.59 0.09 3.18 0.18 4.8 0.27 4.6 0.34 9.2 1.09 13.9 1.47-1.6 13.65-1.6 27.41-1.3 41.13-5.7 1.91-11.3 3.99-16.92 6.07 0.66-14.15-0.1-28.3 0.68-42.44 0.08-2.48 2.88-6.17-1.16-6.5z"/>
<path fill="#ca6a69" d="m63.03 95.03c15.06-0.15 30.15-2.81 45.18-1.13-1.27 1.16-2.66 2.16-4.06 3.15-13.69-1.85-27.44 0.02-41.12 0.91v-2.93z"/>
<path fill="#c21e18" d="m1009.4 93.85c1.2-0.06 2.4-0.08 3.6-0.06-0.4 13.23 2.3 29.62-3.2 41.04-0.4 0.04-1.3 0.11-1.7 0.15-0.3-13.72-0.3-27.48 1.3-41.13z"/>
<path fill="#cf211b" d="m1013 93.79c4.2 0.32 8.3 1.39 12.5 1.9-0.4 0.06-1.4 0.17-1.8 0.23-9.4 6.49 1.5 27.29-3.8 37.91-3.4 0.33-6.7 0.74-10.1 1 5.5-11.42 2.8-27.81 3.2-41.04z"/>
<path fill="#f5f3ea" d="m29.82 99.04c0.91-4.27 2.79-5.16 3.31-0.24 0 2.57 0 5.14 0.01 7.72-0.24 12.95 2.77 26.02 1.7 38.86-1.56 0.15-3.12 0.12-4.67 0-1.08-11.97-0.9-24.22 0.11-36.21-0.09-3.38-0.34-6.75-0.46-10.13z"/>
<path fill="#c76662" d="m45.9 96.71c4.82 0.11 14.8-3.87 14.14 3.56-4.69-0.59-9.97 0.85-14.22-1.77 0.02-0.45 0.06-1.34 0.08-1.79z"/>
<path fill="#c35e5a" d="m63.03 97.96c13.68-0.89 27.43-2.76 41.12-0.91-1.05 0.8-2.11 1.57-3.23 2.24-12.65-0.72-25.27 0.95-37.9 0.59 0-0.48 0.01-1.44 0.01-1.92z"/>
<path fill="#c71f18" d="m1019.9 133.83c5.3-10.62-5.6-31.42 3.8-37.91-1.6 12.67 0.7 25.66-2 38.19-0.4-0.07-1.3-0.21-1.8-0.28z"/>
<path fill="#bf1e18" d="m1023.7 95.92c0.4-0.06 1.4-0.17 1.8-0.23 1.2 0.12 2.3 0.27 3.5 0.43 0.4 0.08 1.3 0.23 1.7 0.31l0.6 0.66c-10.4 2.67-6.1 29.28-4.3 38.02-0.6-0.11-1.9-0.35-2.6-0.46-0.6-0.14-2-0.4-2.7-0.54 2.7-12.53 0.4-25.52 2-38.19z"/>
<path fill="#b51d18" d="m1027 135.11c-1.8-8.74-6.1-35.35 4.3-38.02 2.9 0.21 5.9 0.55 8.8 1.1 1.9 0.39 3.8 0.8 5.7 1.25 2.4 0.59 4.8 1.23 7.2 1.85 2.3 0.63 4.7 1.11 7 1.75 9 5.18 16.7 13.83 17.2 24.67-5.5 6.29-13.9 9.05-22 9.7-4.5-0.01-8.9-0.08-13.4-0.15-1.8-0.27-3.7-0.53-5.5-0.75-1.5-0.22-4.5-0.64-6-0.86-1.1-0.16-2.2-0.34-3.3-0.54z"/>
<path fill="#aab9b3" d="m24.98 106.26c2.24-1.93 3.81-4.47 4.84-7.22 0.12 3.38 0.37 6.75 0.46 10.13-0.59 1.1-1.17 2.2-1.75 3.3-0.35-0.57-1.03-1.71-1.38-2.28-0.63-0.88-1.37-1.67-2.22-2.35 0.02-0.4 0.04-1.19 0.05-1.58z"/>
<path fill="#afc1c4" d="m33.13 98.8c1.22 2.36 2.31 4.79 3.15 7.32-0.07 1.44-0.23 4.32-0.3 5.76-0.45 0.45-1.35 1.36-1.8 1.81-0.42-2.38-0.76-4.77-1.04-7.17-0.01-2.58-0.01-5.15-0.01-7.72z"/>
<path fill="#bc574f" d="m43.92 103.05c0.7-1.49 1.32-3.02 1.9-4.55 4.25 2.62 9.53 1.18 14.22 1.77 0.09 0.7 0.26 2.1 0.35 2.8-1 6.85-2.34 13.82-5.49 20.04-4.37-1.23-8.69-2.61-13.01-3.97-1.08-2.24-1.96-4.57-2.79-6.91l-0.17-0.73c1.65-2.83 3.55-5.51 4.99-8.45z"/>
<path fill="#b95650" d="m63.02 99.88c12.63 0.36 25.25-1.31 37.9-0.59-13.04 10.39-27.32 19.79-42.93 25.84 0.44-8.62 4.65-16.58 5.03-25.25z"/>
<path fill="#808b8f" d="m36.28 106.12c0.79 1.84 1.89 3.52 2.65 5.38l0.17 0.73c-0.58-0.03-1.75-0.08-2.34-0.1l-0.78-0.25c0.07-1.44 0.23-4.32 0.3-5.76z"/>
<path fill="#f1e7d5" d="m33.14 106.52c0.28 2.4 0.62 4.79 1.04 7.17 0.48 1.7 1.2 3.33 1.88 4.96 1.18 8.34-3.31 18.74 2.98 25.7-1.37 0.45-2.79 0.76-4.2 1.03 1.07-12.84-1.94-25.91-1.7-38.86z"/>
<path fill="#ebd7b0" d="m24.93 107.84c0.85 0.68 1.59 1.47 2.22 2.35-2.27 10.55 0.43 21.24-0.96 31.82-5.19-1.15-8.96-5.07-12.22-9.01l0.71 0.14c3.41 1.27 6.34 6.26 10.18 5.1-0.21-9.58-0.57-19.16-0.01-28.73 0.02-0.42 0.06-1.26 0.08-1.67z"/>
<path fill="#ae4127" d="m989.01 107.87l1 0.07c0.07 6.73-0.07 13.46-0.08 20.2l-0.98-0.23c-0.02-0.51-0.05-1.51-0.07-2.02-0.07-4.03-0.1-8.06-0.09-12.08 0.06-1.98 0.13-3.97 0.22-5.94z"/>
<path fill="#ecd3a5" d="m23.02 113.76c0.61-1.42 1.24-2.83 1.83-4.25-0.56 9.57-0.2 19.15 0.01 28.73-3.84 1.16-6.77-3.83-10.18-5.1 2.77-6.35 8.45-12.08 8.34-19.38z"/>
<path fill="#efdfbe" d="m26.19 142.01c1.39-10.58-1.31-21.27 0.96-31.82 0.35 0.57 1.03 1.71 1.38 2.28-1.66 9.8 1.42 20.29-1.53 29.82l-0.81-0.28z"/>
<path fill="#f4ead5" d="m30.28 109.17c-1.01 11.99-1.19 24.24-0.11 36.21-1.48-0.16-2.94-0.42-4.37-0.81l1.2-2.28c2.95-9.53-0.13-20.02 1.53-29.82 0.58-1.1 1.16-2.2 1.75-3.3z"/>
<path fill="#cc877d" d="m36.76 112.13c0.59 0.02 1.76 0.07 2.34 0.1 0.83 2.34 1.71 4.67 2.79 6.91l-0.77-0.1c-1.09-0.15-2.17-0.28-3.26-0.38-0.48-2.16-0.49-4.4-1.1-6.53z"/>
<path fill="#d0afab" d="m34.18 113.69c0.45-0.45 1.35-1.36 1.8-1.81l0.78 0.25c0.61 2.13 0.62 4.37 1.1 6.53-0.45 0-1.35-0.01-1.8-0.01-0.68-1.63-1.4-3.26-1.88-4.96z"/>
<path fill="#e8cd9b" d="m10.72 128.3c7.88 4.51 7.73-10.07 12.3-14.54 0.11 7.3-5.57 13.03-8.34 19.38l-0.71-0.14c-1.29-1.41-2.41-2.99-3.25-4.7z"/>
<path fill="#e28f6b" d="m987.96 126.27c0.17-4.16 0.48-8.31 0.83-12.46-0.01 4.02 0.02 8.05 0.09 12.08l-0.92 0.38z"/>
<path fill="#6f4e4d" d="m137.99 122.05c3.93-2.62 8.41-4.16 13.02-5.07-3.96 2.57-8.42 4.13-13.02 5.07z"/>
<path fill="#f2e2c2" d="m36.06 118.65c0.45 0 1.35 0.01 1.8 0.01 0.05 8.18-3.31 32.03 8.9 16.46 0.57-0.15 1.69-0.46 2.25-0.61 0.38 0.15 1.13 0.44 1.5 0.59-3.63 3.3-7.03 7.03-11.47 9.25-6.29-6.96-1.8-17.36-2.98-25.7z"/>
<path fill="#e7d2a9" d="m37.86 118.66c1.09 0.1 2.17 0.23 3.26 0.38 2.12 3.59 4.15 7.25 5.95 11.03-5.98 0.87-7.5 5.62-0.31 5.05-12.21 15.57-8.85-8.28-8.9-16.46z"/>
<path fill="#4a5a4e" d="m214.99 121.15c1.33-2 3.46-3.03 5.74-3.59 11.34 4.68-5.88 15.65-5.74 3.59z"/>
<path fill="#e4bf8f" d="m41.12 119.04l0.77 0.1c4.32 1.36 8.64 2.74 13.01 3.97-0.71 1.56-1.41 3.12-2.13 4.67l-0.59 0.46c-1.69 0.63-3.4 1.22-5.11 1.83-1.8-3.78-3.83-7.44-5.95-11.03z"/>
<path fill="#7b564f" d="m118.2 130.09c3.51-2.6 7.55-4.23 11.79-5.21-2.93 1.48-5.69 3.26-8.41 5.09-1.12 0.06-2.25 0.1-3.38 0.12z"/>
<path fill="#554543" d="m77.47 126.88c3-1.2 6.03-1.28 9.09-0.22-3.04-0.01-6.06-0.03-9.09 0.22z"/>
<path fill="#d67959" d="m987.96 126.27l0.92-0.38c0.02 0.51 0.05 1.51 0.07 2.02-0.05 4.69-0.34 9.39-0.22 14.09 0.89 5.05 2.06 10.06 3.12 15.08-5.63-9.15-3.48-20.7-3.89-30.81z"/>
<path fill="#8b5855" d="m75.11 127.69c0.59-0.2 1.77-0.61 2.36-0.81 3.03-0.25 6.05-0.23 9.09-0.22 1.64 0.46 3.1 1.38 4.6 2.16-5.34-0.51-10.7-0.86-16.05-1.13z"/>
<path fill="#41594e" d="m47.07 130.07c1.71-0.61 3.42-1.2 5.11-1.83-1.14 2.05-2.18 4.15-3.17 6.27-0.67-1.47-1.32-2.95-1.94-4.44z"/>
<path fill="#aec4bd" d="m52.18 128.24l0.59-0.46c0.23 0.49 0.68 1.46 0.91 1.94-0.77 1.8-1.56 3.59-2.35 5.38h-0.82c-0.37-0.15-1.12-0.44-1.5-0.59 0.99-2.12 2.03-4.22 3.17-6.27z"/>
<path fill="#b9584f" d="m72.95 128.74c0.54-0.26 1.62-0.79 2.16-1.05 5.35 0.27 10.71 0.62 16.05 1.13 4.47 2.17 8.51 5.9 13.84 5.32-12.28-1.85 7.43 17.75-6.72 13.98-6.7-3.1-4.67 4.89-6.01 7.83 0.28-2.62-0.22-4.89-1.5-6.81-7.45-2.18-19.47-5.09-24.85 1.27-0.05 1.56-0.16 4.68-0.21 6.23-2.77-7.47-8.78-12.89-2.02-20.84 3.48-1.79 6.69-4.09 9.26-7.06z"/>
<path fill="#aa2f1c" d="m988.95 127.91l0.98 0.23c0.39 4.3 0.81 8.6 1.25 12.91-0.61 0.23-1.83 0.71-2.45 0.95-0.12-4.7 0.17-9.4 0.22-14.09z"/>
<path fill="#995e5a" d="m63.12 135.21c3.26-2.18 6.39-4.57 9.83-6.47-2.57 2.97-5.78 5.27-9.26 7.06l-0.57-0.59z"/>
<path fill="#68786c" d="m46.76 135.12c-7.19 0.57-5.67-4.18 0.31-5.05 0.62 1.49 1.27 2.97 1.94 4.44-0.56 0.15-1.68 0.46-2.25 0.61z"/>
<path fill="#e27c67" d="m539.85 145.01c41.45-3.81 83.2-9.17 124.56-12.87-41.21 6.45-82.87 11.5-124.56 12.87z"/>
<path fill="#e47a65" d="m438.05 133.98c29.24 9.36 59.96 11.43 90.4 11.08l-0.68 0.66c-29.84 0.29-62.16 1.35-89.72-11.74z"/>
<path fill="#e7514a" d="m1009.8 134.83c3.4-0.26 6.7-0.67 10.1-1 0.5 0.07 1.4 0.21 1.8 0.28 0.7 0.14 2.1 0.4 2.7 0.54-20.8 1.48 7.4 35.9-17.5 33.66-6.5-1.18-12.57-4.72-15.05-11.23-1.06-5.02-2.23-10.03-3.12-15.08 0.62-0.24 1.84-0.72 2.45-0.95 5.62-2.08 11.22-4.16 16.92-6.07 0.4-0.04 1.3-0.11 1.7-0.15z"/>
<path fill="#e95b54" d="m1006.9 168.31c24.9 2.24-3.3-32.18 17.5-33.66 0.7 0.11 2 0.35 2.6 0.46 1.1 0.2 2.2 0.38 3.3 0.54-12.5 6.26 5.6 29.19-10.1 33.79l-0.7 0.56h-5.2c-2.5-0.51-5-1.12-7.4-1.69z"/>
<path fill="#e9625b" d="m1020.2 169.44c15.7-4.6-2.4-27.53 10.1-33.79 1.5 0.22 4.5 0.64 6 0.86-5 1.14-4.4 6.19-3 9.9 2.1 6.53-2.8 15.26 2.7 20.58-1.6 0.43-3.2 0.79-4.8 1.11-3.6 0.74-7.4 0.9-11 1.34z"/>
<path fill="#eb6660" d="m1033.3 146.41c-1.4-3.71-2-8.76 3-9.9 1.8 0.22 3.7 0.48 5.5 0.75l0.8 0.57c-10.3 4.71-0.2 19.83-5.2 28.75-0.3 0.1-1.1 0.3-1.4 0.41-5.5-5.32-0.6-14.05-2.7-20.58z"/>
<path fill="#db4f48" d="m1041.8 137.26c4.5 0.07 8.9 0.14 13.4 0.15-4.2 0.47-8.5 0.35-12.6 0.42l-0.8-0.57z"/>
<path fill="#e27a65" d="m1037.4 166.58c47.1-7.35 94.2-16.22 141.2-23.53l0.6 0.78c-49.2 8.88-98.2 19.33-148 24.27 1.6-0.32 3.2-0.68 4.8-1.11 0.3-0.11 1.1-0.31 1.4-0.41z"/>
<path fill="#e78e71" d="m1178.6 143.05c8-0.18 15.9-0.13 23.9-0.37l1.6 1.16c-8.3 0.21-16.6 0.19-24.9-0.01l-0.6-0.78z"/>
<path fill="#e79372" d="m1227.8 144.1c4.8 0.14 9.6 0.38 14.4 0.75-4.8-0.14-9.6-0.41-14.4-0.75z"/>
<path fill="#e99072" d="m528.45 145.06c3.49-0.16 6.95 0.27 10.48-0.08-3.73 0.36-7.44 0.61-11.16 0.74l0.68-0.66z"/>
<path fill="#5e4f4e" d="m65.92 150.41c5.38-6.36 17.4-3.45 24.85-1.27-1.56-0.16-4.7-0.49-6.26-0.65-3.59-0.17-7.19-0.25-10.77 0.06-2.64 0.47-5.27 1.03-7.82 1.86z"/>
<path fill="#225d63" d="m73.74 148.55c3.58-0.31 7.18-0.23 10.77-0.06 8.78 13.42-20.07 13.45-10.77 0.06z"/>
<path fill="#2c504c" d="m65.92 150.41c2.55-0.83 5.18-1.39 7.82-1.86-9.3 13.39 19.55 13.36 10.77-0.06 1.56 0.16 4.7 0.49 6.26 0.65 1.28 1.92 1.78 4.19 1.5 6.81-2.25 12.65-23.25 13.1-26.56 0.69 0.05-1.55 0.16-4.67 0.21-6.23z"/>
<path fill="#d78c66" d="m1324.4 150.42c4.9 1.24 5.1 3.98-0.3 3.91 0.4-1.27 0.4-2.6 0.3-3.91z"/>
</svg>
